<?xml version="1.0" encoding="us-ascii" standalone="no"?><svg xmlns="http://www.w3.org/2000/svg" xmlns:xlink="http://www.w3.org/1999/xlink" contentStyleType="text/css" height="482px" preserveAspectRatio="none" style="width:998px;height:482px;background:#FFFFFF;" version="1.1" viewBox="0 0 998 482" width="998px" zoomAndPan="magnify"><defs/><g><!--class Runnable--><g id="elem_Runnable"><rect codeLine="6" fill="#F1F1F1" height="66.6211" id="Runnable" rx="2.5" ry="2.5" style="stroke:#181818;stroke-width:0.5;" width="93" x="284" y="53.5"/><ellipse cx="299" cy="69.5" fill="#B4A7E5" rx="11" ry="11" style="stroke:#181818;stroke-width:1.0;"/><path d="M299.9531,66.1406 L299.9531,72.7969 L301.6719,72.7969 Q302.2813,72.7969 302.5469,73.0313 Q302.8125,73.2656 302.8125,73.6563 Q302.8125,74.0313 302.5469,74.2656 Q302.2813,74.5 301.6719,74.5 L296.5313,74.5 Q295.9219,74.5 295.6563,74.2656 Q295.3906,74.0313 295.3906,73.6406 Q295.3906,73.2656 295.6563,73.0313 Q295.9219,72.7969 296.5313,72.7969 L298.25,72.7969 L298.25,66.1406 L296.5313,66.1406 Q295.9219,66.1406 295.6563,65.9063 Q295.3906,65.6719 295.3906,65.2813 Q295.3906,64.9063 295.6563,64.6719 Q295.9219,64.4375 296.5313,64.4375 L301.6719,64.4375 Q302.2813,64.4375 302.5469,64.6719 Q302.8125,64.9063 302.8125,65.2813 Q302.8125,65.6719 302.5469,65.9063 Q302.2813,66.1406 301.6719,66.1406 L299.9531,66.1406 Z " fill="#000000"/><text fill="#000000" font-family="sans-serif" font-size="14" font-style="italic" lengthAdjust="spacing" textLength="61" x="313" y="75.2969">Runnable</text><line style="stroke:#181818;stroke-width:0.5;" x1="285" x2="376" y1="85.5" y2="85.5"/><line style="stroke:#181818;stroke-width:0.5;" x1="285" x2="376" y1="93.5" y2="93.5"/><ellipse cx="295" cy="108.3105" fill="#84BE84" rx="3" ry="3" style="stroke:#038048;stroke-width:1.0;"/><text fill="#000000" font-family="sans-serif" font-size="14" lengthAdjust="spacing" textLength="31" x="304" y="112.6074">run()</text></g><!--class RegisterPruningUI--><g id="elem_RegisterPruningUI"><rect codeLine="10" fill="#F1F1F1" height="159.7266" id="RegisterPruningUI" rx="2.5" ry="2.5" style="stroke:#181818;stroke-width:0.5;" width="146" x="412.5" y="7"/><ellipse cx="427.5" cy="23" fill="#ADD1B2" rx="11" ry="11" style="stroke:#181818;stroke-width:1.0;"/><path d="M430.2656,18.875 Q430.4219,18.6563 430.6094,18.5469 Q430.7969,18.4375 431.0156,18.4375 Q431.3906,18.4375 431.625,18.7031 Q431.8594,18.9531 431.8594,19.5625 L431.8594,21.0156 Q431.8594,21.625 431.625,21.8906 Q431.3906,22.1563 431.0156,22.1563 Q430.6719,22.1563 430.4688,21.9531 Q430.2656,21.7656 430.1563,21.25 Q430.1094,20.8906 429.9219,20.7031 Q429.5938,20.3281 428.9844,20.1094 Q428.375,19.8906 427.75,19.8906 Q426.9844,19.8906 426.3438,20.2188 Q425.7188,20.5469 425.2188,21.2969 Q424.7344,22.0469 424.7344,23.0781 L424.7344,24.1719 Q424.7344,25.4063 425.625,26.2344 Q426.5156,27.0469 428.1094,27.0469 Q429.0469,27.0469 429.7031,26.7969 Q430.0938,26.6406 430.5156,26.2031 Q430.7813,25.9375 430.9219,25.8594 Q431.0781,25.7813 431.2813,25.7813 Q431.6094,25.7813 431.8594,26.0469 Q432.125,26.2969 432.125,26.6406 Q432.125,26.9844 431.7813,27.3906 Q431.2813,27.9688 430.4844,28.2969 Q429.4063,28.75 428.1094,28.75 Q426.5938,28.75 425.3906,28.125 Q424.4063,27.625 423.7188,26.5625 Q423.0313,25.4844 423.0313,24.2031 L423.0313,23.0469 Q423.0313,21.7188 423.6406,20.5781 Q424.2656,19.4219 425.3594,18.8125 Q426.4531,18.1875 427.6875,18.1875 Q428.4219,18.1875 429.0625,18.3594 Q429.7188,18.5156 430.2656,18.875 Z " fill="#000000"/><text fill="#000000" font-family="sans-serif" font-size="14" lengthAdjust="spacing" textLength="114" x="441.5" y="28.7969">RegisterPruningUI</text><line style="stroke:#181818;stroke-width:0.5;" x1="413.5" x2="557.5" y1="39" y2="39"/><line style="stroke:#181818;stroke-width:0.5;" x1="413.5" x2="557.5" y1="47" y2="47"/><ellipse cx="423.5" cy="61.8105" fill="#84BE84" rx="3" ry="3" style="stroke:#038048;stroke-width:1.0;"/><text fill="#000000" font-family="sans-serif" font-size="14" lengthAdjust="spacing" textLength="31" x="432.5" y="66.1074">run()</text><rect fill="#F24D5C" height="6" style="stroke:#C82930;stroke-width:1.0;" width="6" x="420.5" y="77.4316"/><text fill="#000000" font-family="sans-serif" font-size="14" lengthAdjust="spacing" textLength="87" x="432.5" y="84.7285">getOperatID()</text><rect fill="#F24D5C" height="6" style="stroke:#C82930;stroke-width:1.0;" width="6" x="420.5" y="96.0527"/><text fill="#000000" font-family="sans-serif" font-size="14" lengthAdjust="spacing" textLength="83" x="432.5" y="103.3496">getParcelID()</text><rect fill="#F24D5C" height="6" style="stroke:#C82930;stroke-width:1.0;" width="6" x="420.5" y="114.6738"/><text fill="#000000" font-family="sans-serif" font-size="14" lengthAdjust="spacing" textLength="87" x="432.5" y="121.9707">getVarietyID()</text><rect fill="#F24D5C" height="6" style="stroke:#C82930;stroke-width:1.0;" width="6" x="420.5" y="133.2949"/><text fill="#000000" font-family="sans-serif" font-size="14" lengthAdjust="spacing" textLength="120" x="432.5" y="140.5918">getExecMethodID()</text><rect fill="#F24D5C" height="6" style="stroke:#C82930;stroke-width:1.0;" width="6" x="420.5" y="151.916"/><text fill="#000000" font-family="sans-serif" font-size="14" lengthAdjust="spacing" textLength="107" x="432.5" y="159.2129">registerPruning()</text></g><!--class RegisterPruningCtrl--><g id="elem_RegisterPruningCtrl"><rect codeLine="19" fill="#F1F1F1" height="122.4844" id="RegisterPruningCtrl" rx="2.5" ry="2.5" style="stroke:#181818;stroke-width:0.5;" width="156" x="407.5" y="227"/><ellipse cx="422.5" cy="243" fill="#ADD1B2" rx="11" ry="11" style="stroke:#181818;stroke-width:1.0;"/><path d="M425.2656,238.875 Q425.4219,238.6563 425.6094,238.5469 Q425.7969,238.4375 426.0156,238.4375 Q426.3906,238.4375 426.625,238.7031 Q426.8594,238.9531 426.8594,239.5625 L426.8594,241.0156 Q426.8594,241.625 426.625,241.8906 Q426.3906,242.1563 426.0156,242.1563 Q425.6719,242.1563 425.4688,241.9531 Q425.2656,241.7656 425.1563,241.25 Q425.1094,240.8906 424.9219,240.7031 Q424.5938,240.3281 423.9844,240.1094 Q423.375,239.8906 422.75,239.8906 Q421.9844,239.8906 421.3438,240.2188 Q420.7188,240.5469 420.2188,241.2969 Q419.7344,242.0469 419.7344,243.0781 L419.7344,244.1719 Q419.7344,245.4063 420.625,246.2344 Q421.5156,247.0469 423.1094,247.0469 Q424.0469,247.0469 424.7031,246.7969 Q425.0938,246.6406 425.5156,246.2031 Q425.7813,245.9375 425.9219,245.8594 Q426.0781,245.7813 426.2813,245.7813 Q426.6094,245.7813 426.8594,246.0469 Q427.125,246.2969 427.125,246.6406 Q427.125,246.9844 426.7813,247.3906 Q426.2813,247.9688 425.4844,248.2969 Q424.4063,248.75 423.1094,248.75 Q421.5938,248.75 420.3906,248.125 Q419.4063,247.625 418.7188,246.5625 Q418.0313,245.4844 418.0313,244.2031 L418.0313,243.0469 Q418.0313,241.7188 418.6406,240.5781 Q419.2656,239.4219 420.3594,238.8125 Q421.4531,238.1875 422.6875,238.1875 Q423.4219,238.1875 424.0625,238.3594 Q424.7188,238.5156 425.2656,238.875 Z " fill="#000000"/><text fill="#000000" font-family="sans-serif" font-size="14" lengthAdjust="spacing" textLength="124" x="436.5" y="248.7969">RegisterPruningCtrl</text><line style="stroke:#181818;stroke-width:0.5;" x1="408.5" x2="562.5" y1="259" y2="259"/><line style="stroke:#181818;stroke-width:0.5;" x1="408.5" x2="562.5" y1="267" y2="267"/><ellipse cx="418.5" cy="281.8105" fill="#84BE84" rx="3" ry="3" style="stroke:#038048;stroke-width:1.0;"/><text fill="#000000" font-family="sans-serif" font-size="14" lengthAdjust="spacing" textLength="77" x="427.5" y="286.1074">getParcels()</text><ellipse cx="418.5" cy="300.4316" fill="#84BE84" rx="3" ry="3" style="stroke:#038048;stroke-width:1.0;"/><text fill="#000000" font-family="sans-serif" font-size="14" lengthAdjust="spacing" textLength="85" x="427.5" y="304.7285">getVarieties()</text><ellipse cx="418.5" cy="319.0527" fill="#84BE84" rx="3" ry="3" style="stroke:#038048;stroke-width:1.0;"/><text fill="#000000" font-family="sans-serif" font-size="14" lengthAdjust="spacing" textLength="114" x="427.5" y="323.3496">getExecMethods()</text><ellipse cx="418.5" cy="337.6738" fill="#84BE84" rx="3" ry="3" style="stroke:#038048;stroke-width:1.0;"/><text fill="#000000" font-family="sans-serif" font-size="14" lengthAdjust="spacing" textLength="107" x="427.5" y="341.9707">registerPruning()</text></g><!--class AgrOperatDataAccess--><g id="elem_AgrOperatDataAccess"><rect codeLine="26" fill="#F1F1F1" height="66.6211" id="AgrOperatDataAccess" rx="2.5" ry="2.5" style="stroke:#181818;stroke-width:0.5;" width="173" x="7" y="409"/><ellipse cx="22" cy="425" fill="#ADD1B2" rx="11" ry="11" style="stroke:#181818;stroke-width:1.0;"/><path d="M24.7656,420.875 Q24.9219,420.6563 25.1094,420.5469 Q25.2969,420.4375 25.5156,420.4375 Q25.8906,420.4375 26.125,420.7031 Q26.3594,420.9531 26.3594,421.5625 L26.3594,423.0156 Q26.3594,423.625 26.125,423.8906 Q25.8906,424.1563 25.5156,424.1563 Q25.1719,424.1563 24.9688,423.9531 Q24.7656,423.7656 24.6563,423.25 Q24.6094,422.8906 24.4219,422.7031 Q24.0938,422.3281 23.4844,422.1094 Q22.875,421.8906 22.25,421.8906 Q21.4844,421.8906 20.8438,422.2188 Q20.2188,422.5469 19.7188,423.2969 Q19.2344,424.0469 19.2344,425.0781 L19.2344,426.1719 Q19.2344,427.4063 20.125,428.2344 Q21.0156,429.0469 22.6094,429.0469 Q23.5469,429.0469 24.2031,428.7969 Q24.5938,428.6406 25.0156,428.2031 Q25.2813,427.9375 25.4219,427.8594 Q25.5781,427.7813 25.7813,427.7813 Q26.1094,427.7813 26.3594,428.0469 Q26.625,428.2969 26.625,428.6406 Q26.625,428.9844 26.2813,429.3906 Q25.7813,429.9688 24.9844,430.2969 Q23.9063,430.75 22.6094,430.75 Q21.0938,430.75 19.8906,430.125 Q18.9063,429.625 18.2188,428.5625 Q17.5313,427.4844 17.5313,426.2031 L17.5313,425.0469 Q17.5313,423.7188 18.1406,422.5781 Q18.7656,421.4219 19.8594,420.8125 Q20.9531,420.1875 22.1875,420.1875 Q22.9219,420.1875 23.5625,420.3594 Q24.2188,420.5156 24.7656,420.875 Z " fill="#000000"/><text fill="#000000" font-family="sans-serif" font-size="14" lengthAdjust="spacing" textLength="141" x="36" y="430.7969">AgrOperatDataAccess</text><line style="stroke:#181818;stroke-width:0.5;" x1="8" x2="179" y1="441" y2="441"/><line style="stroke:#181818;stroke-width:0.5;" x1="8" x2="179" y1="449" y2="449"/><ellipse cx="18" cy="463.8105" fill="#84BE84" rx="3" ry="3" style="stroke:#038048;stroke-width:1.0;"/><text fill="#000000" font-family="sans-serif" font-size="14" lengthAdjust="spacing" textLength="136" x="27" y="468.1074">getNextAgrOperatID()</text></g><!--class ParcelsDataAccess--><g id="elem_ParcelsDataAccess"><rect codeLine="30" fill="#F1F1F1" height="66.6211" id="ParcelsDataAccess" rx="2.5" ry="2.5" style="stroke:#181818;stroke-width:0.5;" width="154" x="215.5" y="409"/><ellipse cx="230.5" cy="425" fill="#ADD1B2" rx="11" ry="11" style="stroke:#181818;stroke-width:1.0;"/><path d="M233.2656,420.875 Q233.4219,420.6563 233.6094,420.5469 Q233.7969,420.4375 234.0156,420.4375 Q234.3906,420.4375 234.625,420.7031 Q234.8594,420.9531 234.8594,421.5625 L234.8594,423.0156 Q234.8594,423.625 234.625,423.8906 Q234.3906,424.1563 234.0156,424.1563 Q233.6719,424.1563 233.4688,423.9531 Q233.2656,423.7656 233.1563,423.25 Q233.1094,422.8906 232.9219,422.7031 Q232.5938,422.3281 231.9844,422.1094 Q231.375,421.8906 230.75,421.8906 Q229.9844,421.8906 229.3438,422.2188 Q228.7188,422.5469 228.2188,423.2969 Q227.7344,424.0469 227.7344,425.0781 L227.7344,426.1719 Q227.7344,427.4063 228.625,428.2344 Q229.5156,429.0469 231.1094,429.0469 Q232.0469,429.0469 232.7031,428.7969 Q233.0938,428.6406 233.5156,428.2031 Q233.7813,427.9375 233.9219,427.8594 Q234.0781,427.7813 234.2813,427.7813 Q234.6094,427.7813 234.8594,428.0469 Q235.125,428.2969 235.125,428.6406 Q235.125,428.9844 234.7813,429.3906 Q234.2813,429.9688 233.4844,430.2969 Q232.4063,430.75 231.1094,430.75 Q229.5938,430.75 228.3906,430.125 Q227.4063,429.625 226.7188,428.5625 Q226.0313,427.4844 226.0313,426.2031 L226.0313,425.0469 Q226.0313,423.7188 226.6406,422.5781 Q227.2656,421.4219 228.3594,420.8125 Q229.4531,420.1875 230.6875,420.1875 Q231.4219,420.1875 232.0625,420.3594 Q232.7188,420.5156 233.2656,420.875 Z " fill="#000000"/><text fill="#000000" font-family="sans-serif" font-size="14" lengthAdjust="spacing" textLength="122" x="244.5" y="430.7969">ParcelsDataAccess</text><line style="stroke:#181818;stroke-width:0.5;" x1="216.5" x2="368.5" y1="441" y2="441"/><line style="stroke:#181818;stroke-width:0.5;" x1="216.5" x2="368.5" y1="449" y2="449"/><ellipse cx="226.5" cy="463.8105" fill="#84BE84" rx="3" ry="3" style="stroke:#038048;stroke-width:1.0;"/><text fill="#000000" font-family="sans-serif" font-size="14" lengthAdjust="spacing" textLength="77" x="235.5" y="468.1074">getParcels()</text></g><!--class VarietiesDataAccess--><g id="elem_VarietiesDataAccess"><rect codeLine="34" fill="#F1F1F1" height="66.6211" id="VarietiesDataAccess" rx="2.5" ry="2.5" style="stroke:#181818;stroke-width:0.5;" width="162" x="404.5" y="409"/><ellipse cx="419.5" cy="425" fill="#ADD1B2" rx="11" ry="11" style="stroke:#181818;stroke-width:1.0;"/><path d="M422.2656,420.875 Q422.4219,420.6563 422.6094,420.5469 Q422.7969,420.4375 423.0156,420.4375 Q423.3906,420.4375 423.625,420.7031 Q423.8594,420.9531 423.8594,421.5625 L423.8594,423.0156 Q423.8594,423.625 423.625,423.8906 Q423.3906,424.1563 423.0156,424.1563 Q422.6719,424.1563 422.4688,423.9531 Q422.2656,423.7656 422.1563,423.25 Q422.1094,422.8906 421.9219,422.7031 Q421.5938,422.3281 420.9844,422.1094 Q420.375,421.8906 419.75,421.8906 Q418.9844,421.8906 418.3438,422.2188 Q417.7188,422.5469 417.2188,423.2969 Q416.7344,424.0469 416.7344,425.0781 L416.7344,426.1719 Q416.7344,427.4063 417.625,428.2344 Q418.5156,429.0469 420.1094,429.0469 Q421.0469,429.0469 421.7031,428.7969 Q422.0938,428.6406 422.5156,428.2031 Q422.7813,427.9375 422.9219,427.8594 Q423.0781,427.7813 423.2813,427.7813 Q423.6094,427.7813 423.8594,428.0469 Q424.125,428.2969 424.125,428.6406 Q424.125,428.9844 423.7813,429.3906 Q423.2813,429.9688 422.4844,430.2969 Q421.4063,430.75 420.1094,430.75 Q418.5938,430.75 417.3906,430.125 Q416.4063,429.625 415.7188,428.5625 Q415.0313,427.4844 415.0313,426.2031 L415.0313,425.0469 Q415.0313,423.7188 415.6406,422.5781 Q416.2656,421.4219 417.3594,420.8125 Q418.4531,420.1875 419.6875,420.1875 Q420.4219,420.1875 421.0625,420.3594 Q421.7188,420.5156 422.2656,420.875 Z " fill="#000000"/><text fill="#000000" font-family="sans-serif" font-size="14" lengthAdjust="spacing" textLength="130" x="433.5" y="430.7969">VarietiesDataAccess</text><line style="stroke:#181818;stroke-width:0.5;" x1="405.5" x2="565.5" y1="441" y2="441"/><line style="stroke:#181818;stroke-width:0.5;" x1="405.5" x2="565.5" y1="449" y2="449"/><ellipse cx="415.5" cy="463.8105" fill="#84BE84" rx="3" ry="3" style="stroke:#038048;stroke-width:1.0;"/><text fill="#000000" font-family="sans-serif" font-size="14" lengthAdjust="spacing" textLength="85" x="424.5" y="468.1074">getVarieties()</text></g><!--class ExecMethodsDataAccess--><g id="elem_ExecMethodsDataAccess"><rect codeLine="38" fill="#F1F1F1" height="66.6211" id="ExecMethodsDataAccess" rx="2.5" ry="2.5" style="stroke:#181818;stroke-width:0.5;" width="191" x="602" y="409"/><ellipse cx="617" cy="425" fill="#ADD1B2" rx="11" ry="11" style="stroke:#181818;stroke-width:1.0;"/><path d="M619.7656,420.875 Q619.9219,420.6563 620.1094,420.5469 Q620.2969,420.4375 620.5156,420.4375 Q620.8906,420.4375 621.125,420.7031 Q621.3594,420.9531 621.3594,421.5625 L621.3594,423.0156 Q621.3594,423.625 621.125,423.8906 Q620.8906,424.1563 620.5156,424.1563 Q620.1719,424.1563 619.9688,423.9531 Q619.7656,423.7656 619.6563,423.25 Q619.6094,422.8906 619.4219,422.7031 Q619.0938,422.3281 618.4844,422.1094 Q617.875,421.8906 617.25,421.8906 Q616.4844,421.8906 615.8438,422.2188 Q615.2188,422.5469 614.7188,423.2969 Q614.2344,424.0469 614.2344,425.0781 L614.2344,426.1719 Q614.2344,427.4063 615.125,428.2344 Q616.0156,429.0469 617.6094,429.0469 Q618.5469,429.0469 619.2031,428.7969 Q619.5938,428.6406 620.0156,428.2031 Q620.2813,427.9375 620.4219,427.8594 Q620.5781,427.7813 620.7813,427.7813 Q621.1094,427.7813 621.3594,428.0469 Q621.625,428.2969 621.625,428.6406 Q621.625,428.9844 621.2813,429.3906 Q620.7813,429.9688 619.9844,430.2969 Q618.9063,430.75 617.6094,430.75 Q616.0938,430.75 614.8906,430.125 Q613.9063,429.625 613.2188,428.5625 Q612.5313,427.4844 612.5313,426.2031 L612.5313,425.0469 Q612.5313,423.7188 613.1406,422.5781 Q613.7656,421.4219 614.8594,420.8125 Q615.9531,420.1875 617.1875,420.1875 Q617.9219,420.1875 618.5625,420.3594 Q619.2188,420.5156 619.7656,420.875 Z " fill="#000000"/><text fill="#000000" font-family="sans-serif" font-size="14" lengthAdjust="spacing" textLength="159" x="631" y="430.7969">ExecMethodsDataAccess</text><line style="stroke:#181818;stroke-width:0.5;" x1="603" x2="792" y1="441" y2="441"/><line style="stroke:#181818;stroke-width:0.5;" x1="603" x2="792" y1="449" y2="449"/><ellipse cx="613" cy="463.8105" fill="#84BE84" rx="3" ry="3" style="stroke:#038048;stroke-width:1.0;"/><text fill="#000000" font-family="sans-serif" font-size="14" lengthAdjust="spacing" textLength="114" x="622" y="468.1074">getExecMethods()</text></g><!--class PruningsDataAccess--><g id="elem_PruningsDataAccess"><rect codeLine="42" fill="#F1F1F1" height="66.6211" id="PruningsDataAccess" rx="2.5" ry="2.5" style="stroke:#181818;stroke-width:0.5;" width="163" x="828" y="409"/><ellipse cx="843" cy="425" fill="#ADD1B2" rx="11" ry="11" style="stroke:#181818;stroke-width:1.0;"/><path d="M845.7656,420.875 Q845.9219,420.6563 846.1094,420.5469 Q846.2969,420.4375 846.5156,420.4375 Q846.8906,420.4375 847.125,420.7031 Q847.3594,420.9531 847.3594,421.5625 L847.3594,423.0156 Q847.3594,423.625 847.125,423.8906 Q846.8906,424.1563 846.5156,424.1563 Q846.1719,424.1563 845.9688,423.9531 Q845.7656,423.7656 845.6563,423.25 Q845.6094,422.8906 845.4219,422.7031 Q845.0938,422.3281 844.4844,422.1094 Q843.875,421.8906 843.25,421.8906 Q842.4844,421.8906 841.8438,422.2188 Q841.2188,422.5469 840.7188,423.2969 Q840.2344,424.0469 840.2344,425.0781 L840.2344,426.1719 Q840.2344,427.4063 841.125,428.2344 Q842.0156,429.0469 843.6094,429.0469 Q844.5469,429.0469 845.2031,428.7969 Q845.5938,428.6406 846.0156,428.2031 Q846.2813,427.9375 846.4219,427.8594 Q846.5781,427.7813 846.7813,427.7813 Q847.1094,427.7813 847.3594,428.0469 Q847.625,428.2969 847.625,428.6406 Q847.625,428.9844 847.2813,429.3906 Q846.7813,429.9688 845.9844,430.2969 Q844.9063,430.75 843.6094,430.75 Q842.0938,430.75 840.8906,430.125 Q839.9063,429.625 839.2188,428.5625 Q838.5313,427.4844 838.5313,426.2031 L838.5313,425.0469 Q838.5313,423.7188 839.1406,422.5781 Q839.7656,421.4219 840.8594,420.8125 Q841.9531,420.1875 843.1875,420.1875 Q843.9219,420.1875 844.5625,420.3594 Q845.2188,420.5156 845.7656,420.875 Z " fill="#000000"/><text fill="#000000" font-family="sans-serif" font-size="14" lengthAdjust="spacing" textLength="131" x="857" y="430.7969">PruningsDataAccess</text><line style="stroke:#181818;stroke-width:0.5;" x1="829" x2="990" y1="441" y2="441"/><line style="stroke:#181818;stroke-width:0.5;" x1="829" x2="990" y1="449" y2="449"/><ellipse cx="839" cy="463.8105" fill="#84BE84" rx="3" ry="3" style="stroke:#038048;stroke-width:1.0;"/><text fill="#000000" font-family="sans-serif" font-size="14" lengthAdjust="spacing" textLength="107" x="848" y="468.1074">registerPruning()</text></g><!--reverse link Runnable to RegisterPruningUI--><g id="link_Runnable_RegisterPruningUI"><path codeLine="46" d="M395.02,87 C395.02,87 398.06,87 412.22,87 " fill="none" id="Runnable-backto-RegisterPruningUI" style="stroke:#181818;stroke-width:1.0;stroke-dasharray:7.0,7.0;"/><polygon fill="none" points="377.02,87,395.02,93,395.02,81,377.02,87" style="stroke:#181818;stroke-width:1.0;"/></g><!--reverse link RegisterPruningUI to RegisterPruningCtrl--><g id="link_RegisterPruningUI_RegisterPruningCtrl"><path codeLine="48" d="M485.5,173.22 C485.5,193.06 485.5,208.01 485.5,226.76 " fill="none" id="RegisterPruningUI-backto-RegisterPruningCtrl" style="stroke:#181818;stroke-width:1.0;stroke-dasharray:7.0,7.0;"/><polygon fill="#181818" points="485.5,167.22,481.5,176.22,485.5,172.22,489.5,176.22,485.5,167.22" style="stroke:#181818;stroke-width:1.0;"/></g><!--link RegisterPruningCtrl to AgrOperatDataAccess--><g id="link_RegisterPruningCtrl_AgrOperatDataAccess"><path codeLine="50" d="M407.12,319.49 C340.53,345.4 250.8119,380.3049 182.7619,406.7749 " fill="none" id="RegisterPruningCtrl-to-AgrOperatDataAccess" style="stroke:#181818;stroke-width:1.0;stroke-dasharray:7.0,7.0;"/><polygon fill="#181818" points="177.17,408.95,187.0079,409.4152,181.8299,407.1374,184.1077,401.9594,177.17,408.95" style="stroke:#181818;stroke-width:1.0;"/></g><!--link RegisterPruningCtrl to ParcelsDataAccess--><g id="link_RegisterPruningCtrl_ParcelsDataAccess"><path codeLine="51" d="M409.5,349.05 C383.65,369.47 360.4576,387.8 338.3876,405.24 " fill="none" id="RegisterPruningCtrl-to-ParcelsDataAccess" style="stroke:#181818;stroke-width:1.0;stroke-dasharray:7.0,7.0;"/><polygon fill="#181818" points="333.68,408.96,343.2214,406.5184,337.603,405.86,338.2614,400.2416,333.68,408.96" style="stroke:#181818;stroke-width:1.0;"/></g><!--link RegisterPruningCtrl to VarietiesDataAccess--><g id="link_RegisterPruningCtrl_VarietiesDataAccess"><path codeLine="52" d="M485.5,349.27 C485.5,369.59 485.5,385.48 485.5,402.84 " fill="none" id="RegisterPruningCtrl-to-VarietiesDataAccess" style="stroke:#181818;stroke-width:1.0;stroke-dasharray:7.0,7.0;"/><polygon fill="#181818" points="485.5,408.84,489.5,399.84,485.5,403.84,481.5,399.84,485.5,408.84" style="stroke:#181818;stroke-width:1.0;"/></g><!--link RegisterPruningCtrl to ExecMethodsDataAccess--><g id="link_RegisterPruningCtrl_ExecMethodsDataAccess"><path codeLine="53" d="M563.54,345.14 C593.41,366.62 621.6003,386.8949 647.4003,405.4649 " fill="none" id="RegisterPruningCtrl-to-ExecMethodsDataAccess" style="stroke:#181818;stroke-width:1.0;stroke-dasharray:7.0,7.0;"/><polygon fill="#181818" points="652.27,408.97,647.3021,400.4659,648.2119,406.0491,642.6287,406.9589,652.27,408.97" style="stroke:#181818;stroke-width:1.0;"/></g><!--link RegisterPruningCtrl to PruningsDataAccess--><g id="link_RegisterPruningCtrl_PruningsDataAccess"><path codeLine="54" d="M563.76,317.15 C638.78,344.13 745.9042,382.6591 822.0742,410.0591 " fill="none" id="RegisterPruningCtrl-to-PruningsDataAccess" style="stroke:#181818;stroke-width:1.0;stroke-dasharray:7.0,7.0;"/><polygon fill="#181818" points="827.72,412.09,820.6052,405.2797,823.0151,410.3976,817.8973,412.8075,827.72,412.09" style="stroke:#181818;stroke-width:1.0;"/></g><!--SRC=[VP7FJW8n4CRlVOhUr13x1CI4Y0SEAC7eVUmEfQ7RRgRTo4PzTmiBtVySP-RNVjzyS-SFsXP0aFFSMIVtv7BaWKfapQG0UG25xw4oo0bb0AjC6_1xoDotjehlmFZsn6YBeIgG5yvKfu8nRGFI3YJoRMajV1dyOJCgxVq3-sDC6l2URr5f7x5DxCTlFrO9ULGOtWea2AlbfTm0IJIf_0JIKJFLBqUKQmnxbzKjwlvzG_Ova8d2IS97TfOKD5xhHk7SkI6mK5IRNqA0XPJeVItmYiUGXcUVwSr5k_-YiPJ8vAlFjWqdkkMwptSNQfpK2tNnqMslbvt_2XA3OyPvlpKNcHX9Vq2Uca8yZUGuGGxIc-16ifiWHtERKXyanjW_]--></g></svg>