<?xml version="1.0" encoding="us-ascii" standalone="no"?><svg xmlns="http://www.w3.org/2000/svg" xmlns:xlink="http://www.w3.org/1999/xlink" contentStyleType="text/css" height="578px" preserveAspectRatio="none" style="width:524px;height:578px;background:#FFFFFF;" version="1.1" viewBox="0 0 524 578" width="524px" zoomAndPan="magnify"><defs/><g><text fill="#000000" font-family="sans-serif" font-size="14" font-weight="bold" lengthAdjust="spacing" textLength="99" x="205.75" y="25.1074">Class Diagram</text><!--class CancelarOperacaoUI--><g id="elem_CancelarOperacaoUI"><rect codeLine="4" fill="#F1F1F1" height="103.8633" id="CancelarOperacaoUI" rx="2.5" ry="2.5" style="stroke:#181818;stroke-width:0.5;" width="164" x="168" y="46.6211"/><ellipse cx="183" cy="62.6211" fill="#ADD1B2" rx="11" ry="11" style="stroke:#181818;stroke-width:1.0;"/><path d="M185.7656,58.4961 Q185.9219,58.2773 186.1094,58.168 Q186.2969,58.0586 186.5156,58.0586 Q186.8906,58.0586 187.125,58.3242 Q187.3594,58.5742 187.3594,59.1836 L187.3594,60.6367 Q187.3594,61.2461 187.125,61.5117 Q186.8906,61.7773 186.5156,61.7773 Q186.1719,61.7773 185.9688,61.5742 Q185.7656,61.3867 185.6563,60.8711 Q185.6094,60.5117 185.4219,60.3242 Q185.0938,59.9492 184.4844,59.7305 Q183.875,59.5117 183.25,59.5117 Q182.4844,59.5117 181.8438,59.8398 Q181.2188,60.168 180.7188,60.918 Q180.2344,61.668 180.2344,62.6992 L180.2344,63.793 Q180.2344,65.0273 181.125,65.8555 Q182.0156,66.668 183.6094,66.668 Q184.5469,66.668 185.2031,66.418 Q185.5938,66.2617 186.0156,65.8242 Q186.2813,65.5586 186.4219,65.4805 Q186.5781,65.4023 186.7813,65.4023 Q187.1094,65.4023 187.3594,65.668 Q187.625,65.918 187.625,66.2617 Q187.625,66.6055 187.2813,67.0117 Q186.7813,67.5898 185.9844,67.918 Q184.9063,68.3711 183.6094,68.3711 Q182.0938,68.3711 180.8906,67.7461 Q179.9063,67.2461 179.2188,66.1836 Q178.5313,65.1055 178.5313,63.8242 L178.5313,62.668 Q178.5313,61.3398 179.1406,60.1992 Q179.7656,59.043 180.8594,58.4336 Q181.9531,57.8086 183.1875,57.8086 Q183.9219,57.8086 184.5625,57.9805 Q185.2188,58.1367 185.7656,58.4961 Z " fill="#000000"/><text fill="#000000" font-family="sans-serif" font-size="14" lengthAdjust="spacing" textLength="132" x="197" y="68.418">CancelarOperacaoUI</text><line style="stroke:#181818;stroke-width:0.5;" x1="169" x2="331" y1="78.6211" y2="78.6211"/><rect fill="none" height="6" style="stroke:#C82930;stroke-width:1.0;" width="6" x="176" y="90.4316"/><text fill="#000000" font-family="sans-serif" font-size="14" lengthAdjust="spacing" textLength="63" x="188" y="97.7285">repository</text><rect fill="none" height="6" style="stroke:#C82930;stroke-width:1.0;" width="6" x="176" y="109.0527"/><text fill="#000000" font-family="sans-serif" font-size="14" lengthAdjust="spacing" textLength="59" x="188" y="116.3496">controller</text><line style="stroke:#181818;stroke-width:0.5;" x1="169" x2="331" y1="123.8633" y2="123.8633"/><ellipse cx="179" cy="138.6738" fill="#84BE84" rx="3" ry="3" style="stroke:#038048;stroke-width:1.0;"/><text fill="#000000" font-family="sans-serif" font-size="14" lengthAdjust="spacing" textLength="31" x="188" y="142.9707">run()</text></g><!--class Runnable--><g id="elem_Runnable"><rect codeLine="11" fill="#F1F1F1" height="66.6211" id="Runnable" rx="2.5" ry="2.5" style="stroke:#181818;stroke-width:0.5;" width="93" x="367.5" y="65.1211"/><ellipse cx="382.5" cy="81.1211" fill="#B4A7E5" rx="11" ry="11" style="stroke:#181818;stroke-width:1.0;"/><path d="M383.4531,77.7617 L383.4531,84.418 L385.1719,84.418 Q385.7813,84.418 386.0469,84.6523 Q386.3125,84.8867 386.3125,85.2773 Q386.3125,85.6523 386.0469,85.8867 Q385.7813,86.1211 385.1719,86.1211 L380.0313,86.1211 Q379.4219,86.1211 379.1563,85.8867 Q378.8906,85.6523 378.8906,85.2617 Q378.8906,84.8867 379.1563,84.6523 Q379.4219,84.418 380.0313,84.418 L381.75,84.418 L381.75,77.7617 L380.0313,77.7617 Q379.4219,77.7617 379.1563,77.5273 Q378.8906,77.293 378.8906,76.9023 Q378.8906,76.5273 379.1563,76.293 Q379.4219,76.0586 380.0313,76.0586 L385.1719,76.0586 Q385.7813,76.0586 386.0469,76.293 Q386.3125,76.5273 386.3125,76.9023 Q386.3125,77.293 386.0469,77.5273 Q385.7813,77.7617 385.1719,77.7617 L383.4531,77.7617 Z " fill="#000000"/><text fill="#000000" font-family="sans-serif" font-size="14" font-style="italic" lengthAdjust="spacing" textLength="61" x="396.5" y="86.918">Runnable</text><line style="stroke:#181818;stroke-width:0.5;" x1="368.5" x2="459.5" y1="97.1211" y2="97.1211"/><line style="stroke:#181818;stroke-width:0.5;" x1="368.5" x2="459.5" y1="105.1211" y2="105.1211"/><ellipse cx="378.5" cy="119.9316" fill="#84BE84" rx="3" ry="3" style="stroke:#038048;stroke-width:1.0;"/><text fill="#000000" font-family="sans-serif" font-size="14" lengthAdjust="spacing" textLength="31" x="387.5" y="124.2285">run()</text></g><!--class CancelarOperacaoController--><g id="elem_CancelarOperacaoController"><rect codeLine="15" fill="#F1F1F1" height="85.2422" id="CancelarOperacaoController" rx="2.5" ry="2.5" style="stroke:#181818;stroke-width:0.5;" width="214" x="143" y="210.6211"/><ellipse cx="158" cy="226.6211" fill="#ADD1B2" rx="11" ry="11" style="stroke:#181818;stroke-width:1.0;"/><path d="M160.7656,222.4961 Q160.9219,222.2773 161.1094,222.168 Q161.2969,222.0586 161.5156,222.0586 Q161.8906,222.0586 162.125,222.3242 Q162.3594,222.5742 162.3594,223.1836 L162.3594,224.6367 Q162.3594,225.2461 162.125,225.5117 Q161.8906,225.7773 161.5156,225.7773 Q161.1719,225.7773 160.9688,225.5742 Q160.7656,225.3867 160.6563,224.8711 Q160.6094,224.5117 160.4219,224.3242 Q160.0938,223.9492 159.4844,223.7305 Q158.875,223.5117 158.25,223.5117 Q157.4844,223.5117 156.8438,223.8398 Q156.2188,224.168 155.7188,224.918 Q155.2344,225.668 155.2344,226.6992 L155.2344,227.793 Q155.2344,229.0273 156.125,229.8555 Q157.0156,230.668 158.6094,230.668 Q159.5469,230.668 160.2031,230.418 Q160.5938,230.2617 161.0156,229.8242 Q161.2813,229.5586 161.4219,229.4805 Q161.5781,229.4023 161.7813,229.4023 Q162.1094,229.4023 162.3594,229.668 Q162.625,229.918 162.625,230.2617 Q162.625,230.6055 162.2813,231.0117 Q161.7813,231.5898 160.9844,231.918 Q159.9063,232.3711 158.6094,232.3711 Q157.0938,232.3711 155.8906,231.7461 Q154.9063,231.2461 154.2188,230.1836 Q153.5313,229.1055 153.5313,227.8242 L153.5313,226.668 Q153.5313,225.3398 154.1406,224.1992 Q154.7656,223.043 155.8594,222.4336 Q156.9531,221.8086 158.1875,221.8086 Q158.9219,221.8086 159.5625,221.9805 Q160.2188,222.1367 160.7656,222.4961 Z " fill="#000000"/><text fill="#000000" font-family="sans-serif" font-size="14" lengthAdjust="spacing" textLength="182" x="172" y="232.418">CancelarOperacaoController</text><line style="stroke:#181818;stroke-width:0.5;" x1="144" x2="356" y1="242.6211" y2="242.6211"/><line style="stroke:#181818;stroke-width:0.5;" x1="144" x2="356" y1="250.6211" y2="250.6211"/><ellipse cx="154" cy="265.4316" fill="#84BE84" rx="3" ry="3" style="stroke:#038048;stroke-width:1.0;"/><text fill="#000000" font-family="sans-serif" font-size="14" lengthAdjust="spacing" textLength="114" x="163" y="269.7285">cancelOperation()</text><ellipse cx="154" cy="284.0527" fill="#84BE84" rx="3" ry="3" style="stroke:#038048;stroke-width:1.0;"/><text fill="#000000" font-family="sans-serif" font-size="14" lengthAdjust="spacing" textLength="127" x="163" y="288.3496">showOperationList()</text></g><!--class OperacaoAgricolaRepository--><g id="elem_OperacaoAgricolaRepository"><rect codeLine="21" fill="#F1F1F1" height="141.1055" id="OperacaoAgricolaRepository" rx="2.5" ry="2.5" style="stroke:#181818;stroke-width:0.5;" width="214" x="7" y="393.1211"/><ellipse cx="22" cy="409.1211" fill="#ADD1B2" rx="11" ry="11" style="stroke:#181818;stroke-width:1.0;"/><path d="M24.7656,404.9961 Q24.9219,404.7773 25.1094,404.668 Q25.2969,404.5586 25.5156,404.5586 Q25.8906,404.5586 26.125,404.8242 Q26.3594,405.0742 26.3594,405.6836 L26.3594,407.1367 Q26.3594,407.7461 26.125,408.0117 Q25.8906,408.2773 25.5156,408.2773 Q25.1719,408.2773 24.9688,408.0742 Q24.7656,407.8867 24.6563,407.3711 Q24.6094,407.0117 24.4219,406.8242 Q24.0938,406.4492 23.4844,406.2305 Q22.875,406.0117 22.25,406.0117 Q21.4844,406.0117 20.8438,406.3398 Q20.2188,406.668 19.7188,407.418 Q19.2344,408.168 19.2344,409.1992 L19.2344,410.293 Q19.2344,411.5273 20.125,412.3555 Q21.0156,413.168 22.6094,413.168 Q23.5469,413.168 24.2031,412.918 Q24.5938,412.7617 25.0156,412.3242 Q25.2813,412.0586 25.4219,411.9805 Q25.5781,411.9023 25.7813,411.9023 Q26.1094,411.9023 26.3594,412.168 Q26.625,412.418 26.625,412.7617 Q26.625,413.1055 26.2813,413.5117 Q25.7813,414.0898 24.9844,414.418 Q23.9063,414.8711 22.6094,414.8711 Q21.0938,414.8711 19.8906,414.2461 Q18.9063,413.7461 18.2188,412.6836 Q17.5313,411.6055 17.5313,410.3242 L17.5313,409.168 Q17.5313,407.8398 18.1406,406.6992 Q18.7656,405.543 19.8594,404.9336 Q20.9531,404.3086 22.1875,404.3086 Q22.9219,404.3086 23.5625,404.4805 Q24.2188,404.6367 24.7656,404.9961 Z " fill="#000000"/><text fill="#000000" font-family="sans-serif" font-size="14" lengthAdjust="spacing" textLength="182" x="36" y="414.918">OperacaoAgricolaRepository</text><line style="stroke:#181818;stroke-width:0.5;" x1="8" x2="220" y1="425.1211" y2="425.1211"/><line style="stroke:#181818;stroke-width:0.5;" x1="8" x2="220" y1="433.1211" y2="433.1211"/><ellipse cx="18" cy="447.9316" fill="#84BE84" rx="3" ry="3" style="stroke:#038048;stroke-width:1.0;"/><text fill="#000000" font-family="sans-serif" font-size="14" lengthAdjust="spacing" textLength="158" x="27" y="452.2285">getOperacoesAgricolas()</text><ellipse cx="18" cy="466.5527" fill="#84BE84" rx="3" ry="3" style="stroke:#038048;stroke-width:1.0;"/><text fill="#000000" font-family="sans-serif" font-size="14" lengthAdjust="spacing" textLength="177" x="27" y="470.8496">OperacaoAgricolaRegister()</text><ellipse cx="18" cy="485.1738" fill="#84BE84" rx="3" ry="3" style="stroke:#038048;stroke-width:1.0;"/><text fill="#000000" font-family="sans-serif" font-size="14" lengthAdjust="spacing" textLength="162" x="27" y="489.4707">operacaoAgricolaDelete()</text><ellipse cx="18" cy="503.7949" fill="#84BE84" rx="3" ry="3" style="stroke:#038048;stroke-width:1.0;"/><text fill="#000000" font-family="sans-serif" font-size="14" lengthAdjust="spacing" textLength="165" x="27" y="508.0918">operacaoAgricolaCancel()</text><ellipse cx="18" cy="522.416" fill="#84BE84" rx="3" ry="3" style="stroke:#038048;stroke-width:1.0;"/><text fill="#000000" font-family="sans-serif" font-size="14" lengthAdjust="spacing" textLength="105" x="27" y="526.7129">resultSetToList()</text></g><!--class OperacaoAgricolaRegisterController--><g id="elem_OperacaoAgricolaRegisterController"><rect codeLine="29" fill="#F1F1F1" height="215.5898" id="OperacaoAgricolaRegisterController" rx="2.5" ry="2.5" style="stroke:#181818;stroke-width:0.5;" width="261" x="256.5" y="355.6211"/><ellipse cx="271.5" cy="371.6211" fill="#ADD1B2" rx="11" ry="11" style="stroke:#181818;stroke-width:1.0;"/><path d="M274.2656,367.4961 Q274.4219,367.2773 274.6094,367.168 Q274.7969,367.0586 275.0156,367.0586 Q275.3906,367.0586 275.625,367.3242 Q275.8594,367.5742 275.8594,368.1836 L275.8594,369.6367 Q275.8594,370.2461 275.625,370.5117 Q275.3906,370.7773 275.0156,370.7773 Q274.6719,370.7773 274.4688,370.5742 Q274.2656,370.3867 274.1563,369.8711 Q274.1094,369.5117 273.9219,369.3242 Q273.5938,368.9492 272.9844,368.7305 Q272.375,368.5117 271.75,368.5117 Q270.9844,368.5117 270.3438,368.8398 Q269.7188,369.168 269.2188,369.918 Q268.7344,370.668 268.7344,371.6992 L268.7344,372.793 Q268.7344,374.0273 269.625,374.8555 Q270.5156,375.668 272.1094,375.668 Q273.0469,375.668 273.7031,375.418 Q274.0938,375.2617 274.5156,374.8242 Q274.7813,374.5586 274.9219,374.4805 Q275.0781,374.4023 275.2813,374.4023 Q275.6094,374.4023 275.8594,374.668 Q276.125,374.918 276.125,375.2617 Q276.125,375.6055 275.7813,376.0117 Q275.2813,376.5898 274.4844,376.918 Q273.4063,377.3711 272.1094,377.3711 Q270.5938,377.3711 269.3906,376.7461 Q268.4063,376.2461 267.7188,375.1836 Q267.0313,374.1055 267.0313,372.8242 L267.0313,371.668 Q267.0313,370.3398 267.6406,369.1992 Q268.2656,368.043 269.3594,367.4336 Q270.4531,366.8086 271.6875,366.8086 Q272.4219,366.8086 273.0625,366.9805 Q273.7188,367.1367 274.2656,367.4961 Z " fill="#000000"/><text fill="#000000" font-family="sans-serif" font-size="14" lengthAdjust="spacing" textLength="229" x="285.5" y="377.418">OperacaoAgricolaRegisterController</text><line style="stroke:#181818;stroke-width:0.5;" x1="257.5" x2="516.5" y1="387.6211" y2="387.6211"/><rect fill="none" height="6" style="stroke:#C82930;stroke-width:1.0;" width="6" x="264.5" y="399.4316"/><text fill="#000000" font-family="sans-serif" font-size="14" lengthAdjust="spacing" textLength="179" x="276.5" y="406.7285">operacaoAgricolaRepository</text><rect fill="none" height="6" style="stroke:#C82930;stroke-width:1.0;" width="6" x="264.5" y="418.0527"/><text fill="#000000" font-family="sans-serif" font-size="14" lengthAdjust="spacing" textLength="59" x="276.5" y="425.3496">database</text><rect fill="none" height="6" style="stroke:#C82930;stroke-width:1.0;" width="6" x="264.5" y="436.6738"/><text fill="#000000" font-family="sans-serif" font-size="14" lengthAdjust="spacing" textLength="69" x="276.5" y="443.9707">connection</text><line style="stroke:#181818;stroke-width:0.5;" x1="257.5" x2="516.5" y1="451.4844" y2="451.4844"/><rect fill="#F24D5C" height="6" style="stroke:#C82930;stroke-width:1.0;" width="6" x="264.5" y="463.2949"/><text fill="#000000" font-family="sans-serif" font-size="14" lengthAdjust="spacing" textLength="212" x="276.5" y="470.5918">getOperacaoAgricolaRepository()</text><rect fill="#F24D5C" height="6" style="stroke:#C82930;stroke-width:1.0;" width="6" x="264.5" y="481.916"/><text fill="#000000" font-family="sans-serif" font-size="14" lengthAdjust="spacing" textLength="174" x="276.5" y="489.2129">operacaoAgricolaRegister()</text><rect fill="#F24D5C" height="6" style="stroke:#C82930;stroke-width:1.0;" width="6" x="264.5" y="500.5371"/><text fill="#000000" font-family="sans-serif" font-size="14" lengthAdjust="spacing" textLength="68" x="276.5" y="507.834">getNextId()</text><rect fill="#F24D5C" height="6" style="stroke:#C82930;stroke-width:1.0;" width="6" x="264.5" y="519.1582"/><text fill="#000000" font-family="sans-serif" font-size="14" lengthAdjust="spacing" textLength="121" x="276.5" y="526.4551">getColumnNames()</text><rect fill="#F24D5C" height="6" style="stroke:#C82930;stroke-width:1.0;" width="6" x="264.5" y="537.7793"/><text fill="#000000" font-family="sans-serif" font-size="14" lengthAdjust="spacing" textLength="104" x="276.5" y="545.0762">printTableData()</text><rect fill="#F24D5C" height="6" style="stroke:#C82930;stroke-width:1.0;" width="6" x="264.5" y="556.4004"/><text fill="#000000" font-family="sans-serif" font-size="14" lengthAdjust="spacing" textLength="96" x="276.5" y="563.6973">getTableData()</text></g><!--reverse link CancelarOperacaoUI to Runnable--><g id="link_CancelarOperacaoUI_Runnable"><path codeLine="43" d="M350.32,98.6211 C362.02,98.6211 355.72,98.6211 367.42,98.6211 " fill="none" id="CancelarOperacaoUI-backto-Runnable" style="stroke:#181818;stroke-width:1.0;"/><polygon fill="none" points="332.32,98.6211,350.32,104.6211,350.32,92.6211,332.32,98.6211" style="stroke:#181818;stroke-width:1.0;"/></g><!--link CancelarOperacaoUI to CancelarOperacaoController--><g id="link_CancelarOperacaoUI_CancelarOperacaoController"><path codeLine="44" d="M250,150.8211 C250,170.2111 250,186.0211 250,204.4211 " fill="none" id="CancelarOperacaoUI-to-CancelarOperacaoController" style="stroke:#181818;stroke-width:1.0;stroke-dasharray:7.0,7.0;"/><polygon fill="#181818" points="250,210.4211,254,201.4211,250,205.4211,246,201.4211,250,210.4211" style="stroke:#181818;stroke-width:1.0;"/></g><!--link CancelarOperacaoController to OperacaoAgricolaRepository--><g id="link_CancelarOperacaoController_OperacaoAgricolaRepository"><path codeLine="45" d="M222.81,295.8111 C204.67,323.6211 183.6569,355.825 162.6369,388.065 " fill="none" id="CancelarOperacaoController-to-OperacaoAgricolaRepository" style="stroke:#181818;stroke-width:1.0;stroke-dasharray:7.0,7.0;"/><polygon fill="#181818" points="159.36,393.0911,167.6261,387.7366,162.0908,388.9027,160.9247,383.3673,159.36,393.0911" style="stroke:#181818;stroke-width:1.0;"/></g><!--link CancelarOperacaoController to OperacaoAgricolaRegisterController--><g id="link_CancelarOperacaoController_OperacaoAgricolaRegisterController"><path codeLine="46" d="M277.39,295.8111 C288.8,313.1611 299.3157,329.1663 313.2357,350.3563 " fill="none" id="CancelarOperacaoController-to-OperacaoAgricolaRegisterController" style="stroke:#181818;stroke-width:1.0;stroke-dasharray:7.0,7.0;"/><polygon fill="#181818" points="316.53,355.3711,314.9318,345.6528,313.7848,351.1921,308.2454,350.0451,316.53,355.3711" style="stroke:#181818;stroke-width:1.0;"/></g><!--SRC=[bLBBJiCm4BpxAtm4eVGJAg7aKWaLgIqVi7MtmPBhZTOR0IhyEywZ9Wr94RvvF3kxdXsnub3d3aBGXOMIuQIKQQyvU8CE-Bb21WFqij9dfUF9D6D5mGhnHmyOyiBa7B9gaGVDjR-xLrzAMI_8Hp2eDxNti8_jpcFETCCyYSQAliIqd9OXbfho3W-lz9RG9njaA7mHV2pP6dAmIUEdKKgKZaKOBhIGr7yBbB45SYBGY52WGy7Pv-wdwPanr4wsA3lwU_IkyvKttGvezfSzuG02UmZuipEFfl5BzKWoOKgadtQgpvKPhSmQtsLr628vkVhart32aE2AOpXsJIIAEDgGFGIZ5of59tDubEnpEP5EDH7OnM9v8rRgHkAQodap_byvNflw1W00]--></g></svg>