<?xml version="1.0" encoding="us-ascii" standalone="no"?><svg xmlns="http://www.w3.org/2000/svg" xmlns:xlink="http://www.w3.org/1999/xlink" contentStyleType="text/css" height="429px" preserveAspectRatio="none" style="width:682px;height:429px;background:#FFFFFF;" version="1.1" viewBox="0 0 682 429" width="682px" zoomAndPan="magnify"><defs/><g><text fill="#000000" font-family="sans-serif" font-size="14" font-weight="bold" lengthAdjust="spacing" textLength="99" x="284.5" y="25.1074">Class Diagram</text><!--class OrganizeGraphIntoClusters--><g id="elem_OrganizeGraphIntoClusters"><rect codeLine="4" fill="#F1F1F1" height="103.8633" id="OrganizeGraphIntoClusters" rx="2.5" ry="2.5" style="stroke:#181818;stroke-width:0.5;" width="668" x="7" y="318.6211"/><ellipse cx="250.75" cy="334.6211" fill="#ADD1B2" rx="11" ry="11" style="stroke:#181818;stroke-width:1.0;"/><path d="M253.5156,330.4961 Q253.6719,330.2773 253.8594,330.168 Q254.0469,330.0586 254.2656,330.0586 Q254.6406,330.0586 254.875,330.3242 Q255.1094,330.5742 255.1094,331.1836 L255.1094,332.6367 Q255.1094,333.2461 254.875,333.5117 Q254.6406,333.7773 254.2656,333.7773 Q253.9219,333.7773 253.7188,333.5742 Q253.5156,333.3867 253.4063,332.8711 Q253.3594,332.5117 253.1719,332.3242 Q252.8438,331.9492 252.2344,331.7305 Q251.625,331.5117 251,331.5117 Q250.2344,331.5117 249.5938,331.8398 Q248.9688,332.168 248.4688,332.918 Q247.9844,333.668 247.9844,334.6992 L247.9844,335.793 Q247.9844,337.0273 248.875,337.8555 Q249.7656,338.668 251.3594,338.668 Q252.2969,338.668 252.9531,338.418 Q253.3438,338.2617 253.7656,337.8242 Q254.0313,337.5586 254.1719,337.4805 Q254.3281,337.4023 254.5313,337.4023 Q254.8594,337.4023 255.1094,337.668 Q255.375,337.918 255.375,338.2617 Q255.375,338.6055 255.0313,339.0117 Q254.5313,339.5898 253.7344,339.918 Q252.6563,340.3711 251.3594,340.3711 Q249.8438,340.3711 248.6406,339.7461 Q247.6563,339.2461 246.9688,338.1836 Q246.2813,337.1055 246.2813,335.8242 L246.2813,334.668 Q246.2813,333.3398 246.8906,332.1992 Q247.5156,331.043 248.6094,330.4336 Q249.7031,329.8086 250.9375,329.8086 Q251.6719,329.8086 252.3125,329.9805 Q252.9688,330.1367 253.5156,330.4961 Z " fill="#000000"/><text fill="#000000" font-family="sans-serif" font-size="14" lengthAdjust="spacing" textLength="172" x="271.25" y="340.418">OrganizeGraphIntoClusters</text><line style="stroke:#181818;stroke-width:0.5;" x1="8" x2="674" y1="350.6211" y2="350.6211"/><line style="stroke:#181818;stroke-width:0.5;" x1="8" x2="674" y1="358.6211" y2="358.6211"/><ellipse cx="18" cy="373.4316" fill="#84BE84" rx="3" ry="3" style="stroke:#038048;stroke-width:1.0;"/><text fill="#000000" font-family="sans-serif" font-size="14" lengthAdjust="spacing" textLength="287" x="27" y="377.7285">organizeGraph(Graph&lt;Local, Integer&gt; graph)</text><ellipse cx="18" cy="392.0527" fill="#84BE84" rx="3" ry="3" style="stroke:#038048;stroke-width:1.0;"/><text fill="#000000" font-family="sans-serif" font-size="14" lengthAdjust="spacing" textLength="642" x="27" y="396.3496">findEdgeWithMaxShortestPaths(Graph&lt;Local, Integer&gt; graph, List&lt;LinkedList&lt;Local&gt;&gt; shortestPaths)</text><rect fill="#F24D5C" height="6" style="stroke:#C82930;stroke-width:1.0;" width="6" x="15" y="407.6738"/><text fill="#000000" font-family="sans-serif" font-size="14" lengthAdjust="spacing" textLength="556" x="27" y="414.9707">countShortestPaths(Edge&lt;Local, Integer&gt; edge, List&lt;LinkedList&lt;Local&gt;&gt; shortestPaths)</text></g><!--class OrganizeGraphIntoClustersController--><g id="elem_OrganizeGraphIntoClustersController"><rect codeLine="11" fill="#F1F1F1" height="85.2422" id="OrganizeGraphIntoClustersController" rx="2.5" ry="2.5" style="stroke:#181818;stroke-width:0.5;" width="266" x="208" y="173.6211"/><ellipse cx="223" cy="189.6211" fill="#ADD1B2" rx="11" ry="11" style="stroke:#181818;stroke-width:1.0;"/><path d="M225.7656,185.4961 Q225.9219,185.2773 226.1094,185.168 Q226.2969,185.0586 226.5156,185.0586 Q226.8906,185.0586 227.125,185.3242 Q227.3594,185.5742 227.3594,186.1836 L227.3594,187.6367 Q227.3594,188.2461 227.125,188.5117 Q226.8906,188.7773 226.5156,188.7773 Q226.1719,188.7773 225.9688,188.5742 Q225.7656,188.3867 225.6563,187.8711 Q225.6094,187.5117 225.4219,187.3242 Q225.0938,186.9492 224.4844,186.7305 Q223.875,186.5117 223.25,186.5117 Q222.4844,186.5117 221.8438,186.8398 Q221.2188,187.168 220.7188,187.918 Q220.2344,188.668 220.2344,189.6992 L220.2344,190.793 Q220.2344,192.0273 221.125,192.8555 Q222.0156,193.668 223.6094,193.668 Q224.5469,193.668 225.2031,193.418 Q225.5938,193.2617 226.0156,192.8242 Q226.2813,192.5586 226.4219,192.4805 Q226.5781,192.4023 226.7813,192.4023 Q227.1094,192.4023 227.3594,192.668 Q227.625,192.918 227.625,193.2617 Q227.625,193.6055 227.2813,194.0117 Q226.7813,194.5898 225.9844,194.918 Q224.9063,195.3711 223.6094,195.3711 Q222.0938,195.3711 220.8906,194.7461 Q219.9063,194.2461 219.2188,193.1836 Q218.5313,192.1055 218.5313,190.8242 L218.5313,189.668 Q218.5313,188.3398 219.1406,187.1992 Q219.7656,186.043 220.8594,185.4336 Q221.9531,184.8086 223.1875,184.8086 Q223.9219,184.8086 224.5625,184.9805 Q225.2188,185.1367 225.7656,185.4961 Z " fill="#000000"/><text fill="#000000" font-family="sans-serif" font-size="14" lengthAdjust="spacing" textLength="234" x="237" y="195.418">OrganizeGraphIntoClustersController</text><line style="stroke:#181818;stroke-width:0.5;" x1="209" x2="473" y1="205.6211" y2="205.6211"/><line style="stroke:#181818;stroke-width:0.5;" x1="209" x2="473" y1="213.6211" y2="213.6211"/><ellipse cx="219" cy="228.4316" fill="#84BE84" rx="3" ry="3" style="stroke:#038048;stroke-width:1.0;"/><text fill="#000000" font-family="sans-serif" font-size="14" lengthAdjust="spacing" textLength="98" x="228" y="232.7285">organizeSmall()</text><ellipse cx="219" cy="247.0527" fill="#84BE84" rx="3" ry="3" style="stroke:#038048;stroke-width:1.0;"/><text fill="#000000" font-family="sans-serif" font-size="14" lengthAdjust="spacing" textLength="84" x="228" y="251.3496">organizeBig()</text></g><!--class OrganizeGraphIntoClustersUI--><g id="elem_OrganizeGraphIntoClustersUI"><rect codeLine="17" fill="#F1F1F1" height="66.6211" id="OrganizeGraphIntoClustersUI" rx="2.5" ry="2.5" style="stroke:#181818;stroke-width:0.5;" width="216" x="233" y="46.6211"/><ellipse cx="248" cy="62.6211" fill="#ADD1B2" rx="11" ry="11" style="stroke:#181818;stroke-width:1.0;"/><path d="M250.7656,58.4961 Q250.9219,58.2773 251.1094,58.168 Q251.2969,58.0586 251.5156,58.0586 Q251.8906,58.0586 252.125,58.3242 Q252.3594,58.5742 252.3594,59.1836 L252.3594,60.6367 Q252.3594,61.2461 252.125,61.5117 Q251.8906,61.7773 251.5156,61.7773 Q251.1719,61.7773 250.9688,61.5742 Q250.7656,61.3867 250.6563,60.8711 Q250.6094,60.5117 250.4219,60.3242 Q250.0938,59.9492 249.4844,59.7305 Q248.875,59.5117 248.25,59.5117 Q247.4844,59.5117 246.8438,59.8398 Q246.2188,60.168 245.7188,60.918 Q245.2344,61.668 245.2344,62.6992 L245.2344,63.793 Q245.2344,65.0273 246.125,65.8555 Q247.0156,66.668 248.6094,66.668 Q249.5469,66.668 250.2031,66.418 Q250.5938,66.2617 251.0156,65.8242 Q251.2813,65.5586 251.4219,65.4805 Q251.5781,65.4023 251.7813,65.4023 Q252.1094,65.4023 252.3594,65.668 Q252.625,65.918 252.625,66.2617 Q252.625,66.6055 252.2813,67.0117 Q251.7813,67.5898 250.9844,67.918 Q249.9063,68.3711 248.6094,68.3711 Q247.0938,68.3711 245.8906,67.7461 Q244.9063,67.2461 244.2188,66.1836 Q243.5313,65.1055 243.5313,63.8242 L243.5313,62.668 Q243.5313,61.3398 244.1406,60.1992 Q244.7656,59.043 245.8594,58.4336 Q246.9531,57.8086 248.1875,57.8086 Q248.9219,57.8086 249.5625,57.9805 Q250.2188,58.1367 250.7656,58.4961 Z " fill="#000000"/><text fill="#000000" font-family="sans-serif" font-size="14" lengthAdjust="spacing" textLength="184" x="262" y="68.418">OrganizeGraphIntoClustersUI</text><line style="stroke:#181818;stroke-width:0.5;" x1="234" x2="448" y1="78.6211" y2="78.6211"/><line style="stroke:#181818;stroke-width:0.5;" x1="234" x2="448" y1="86.6211" y2="86.6211"/><ellipse cx="244" cy="101.4316" fill="#84BE84" rx="3" ry="3" style="stroke:#038048;stroke-width:1.0;"/><text fill="#000000" font-family="sans-serif" font-size="14" lengthAdjust="spacing" textLength="31" x="253" y="105.7285">run()</text></g><!--class Runnable--><g id="elem_Runnable"><rect codeLine="21" fill="#F1F1F1" height="66.6211" id="Runnable" rx="2.5" ry="2.5" style="stroke:#181818;stroke-width:0.5;" width="93" x="484.5" y="46.6211"/><ellipse cx="499.5" cy="62.6211" fill="#B4A7E5" rx="11" ry="11" style="stroke:#181818;stroke-width:1.0;"/><path d="M500.4531,59.2617 L500.4531,65.918 L502.1719,65.918 Q502.7813,65.918 503.0469,66.1523 Q503.3125,66.3867 503.3125,66.7773 Q503.3125,67.1523 503.0469,67.3867 Q502.7813,67.6211 502.1719,67.6211 L497.0313,67.6211 Q496.4219,67.6211 496.1563,67.3867 Q495.8906,67.1523 495.8906,66.7617 Q495.8906,66.3867 496.1563,66.1523 Q496.4219,65.918 497.0313,65.918 L498.75,65.918 L498.75,59.2617 L497.0313,59.2617 Q496.4219,59.2617 496.1563,59.0273 Q495.8906,58.793 495.8906,58.4023 Q495.8906,58.0273 496.1563,57.793 Q496.4219,57.5586 497.0313,57.5586 L502.1719,57.5586 Q502.7813,57.5586 503.0469,57.793 Q503.3125,58.0273 503.3125,58.4023 Q503.3125,58.793 503.0469,59.0273 Q502.7813,59.2617 502.1719,59.2617 L500.4531,59.2617 Z " fill="#000000"/><text fill="#000000" font-family="sans-serif" font-size="14" font-style="italic" lengthAdjust="spacing" textLength="61" x="513.5" y="68.418">Runnable</text><line style="stroke:#181818;stroke-width:0.5;" x1="485.5" x2="576.5" y1="78.6211" y2="78.6211"/><line style="stroke:#181818;stroke-width:0.5;" x1="485.5" x2="576.5" y1="86.6211" y2="86.6211"/><ellipse cx="495.5" cy="101.4316" fill="#84BE84" rx="3" ry="3" style="stroke:#038048;stroke-width:1.0;"/><text fill="#000000" font-family="sans-serif" font-size="14" lengthAdjust="spacing" textLength="31" x="504.5" y="105.7285">run()</text></g><!--reverse link OrganizeGraphIntoClustersUI to Runnable--><g id="link_OrganizeGraphIntoClustersUI_Runnable"><path codeLine="25" d="M467.36,80.1211 C479.05,80.1211 472.75,80.1211 484.44,80.1211 " fill="none" id="OrganizeGraphIntoClustersUI-backto-Runnable" style="stroke:#181818;stroke-width:1.0;"/><polygon fill="none" points="449.36,80.1211,467.36,86.1211,467.36,74.1211,449.36,80.1211" style="stroke:#181818;stroke-width:1.0;"/></g><!--link OrganizeGraphIntoClustersUI to OrganizeGraphIntoClustersController--><g id="link_OrganizeGraphIntoClustersUI_OrganizeGraphIntoClustersController"><path codeLine="26" d="M341,113.9011 C341,131.8811 341,148.3411 341,167.5411 " fill="none" id="OrganizeGraphIntoClustersUI-to-OrganizeGraphIntoClustersController" style="stroke:#181818;stroke-width:1.0;stroke-dasharray:7.0,7.0;"/><polygon fill="#181818" points="341,173.5411,345,164.5411,341,168.5411,337,164.5411,341,173.5411" style="stroke:#181818;stroke-width:1.0;"/></g><!--link OrganizeGraphIntoClustersController to OrganizeGraphIntoClusters--><g id="link_OrganizeGraphIntoClustersController_OrganizeGraphIntoClusters"><path codeLine="27" d="M341,258.7911 C341,277.2211 341,293.0711 341,312.4811 " fill="none" id="OrganizeGraphIntoClustersController-to-OrganizeGraphIntoClusters" style="stroke:#181818;stroke-width:1.0;stroke-dasharray:7.0,7.0;"/><polygon fill="#181818" points="341,318.4811,345,309.4811,341,313.4811,337,309.4811,341,318.4811" style="stroke:#181818;stroke-width:1.0;"/></g><!--SRC=[ZP51QiCm44NtEiKi7HBd146BkgK4N58QIjTJUooBAb8OZQ4qwTqhnw6a2RZMGaYZ-UzBNsB54HGEOuHxYuPnfrHrscxOeBTVzCYuRzTUGk6wACGH3af16dC8botPQLwLeKAtW2GWGwp1zDNPMT1ONp_KXjwij4_ukMq32qLvHcdZc7u1fOsoAgt_e7fOzcrQGxn433OvLA7pyXVUkzwmAHKdex__3QO8NZWuHvmYwczo5TDsXyvbiwlgdJNP5Fhh-aoT0tT-aDZq4cwm8dZflCVtz9StFRydkQD6ygCUir1Zzikbdl9uDIMWKPRw0G00]--></g></svg>