<?xml version="1.0" encoding="us-ascii" standalone="no"?><svg xmlns="http://www.w3.org/2000/svg" xmlns:xlink="http://www.w3.org/1999/xlink" contentStyleType="text/css" height="1024px" preserveAspectRatio="none" style="width:562px;height:1024px;background:#FFFFFF;" version="1.1" viewBox="0 0 562 1024" width="562px" zoomAndPan="magnify"><defs/><g><!--class Agent--><g id="elem_Agent"><rect codeLine="14" fill="#F1F1F1" height="36.6211" id="Agent" rx="2.5" ry="2.5" style="stroke:#181818;stroke-width:0.5;" width="43" x="168" y="7"/><text fill="#000000" font-family="sans-serif" font-size="14" lengthAdjust="spacing" textLength="37" x="171" y="27.1074">Agent</text><line style="stroke:#181818;stroke-width:0.5;" x1="169" x2="210" y1="35.6211" y2="35.6211"/></g><!--class Adress--><g id="elem_Adress"><rect codeLine="16" fill="#F1F1F1" height="55.2422" id="Adress" rx="2.5" ry="2.5" style="stroke:#181818;stroke-width:0.5;" width="50" x="172.5" y="522.5"/><text fill="#000000" font-family="sans-serif" font-size="14" lengthAdjust="spacing" textLength="44" x="175.5" y="542.6074">Adress</text><line style="stroke:#181818;stroke-width:0.5;" x1="173.5" x2="221.5" y1="551.1211" y2="551.1211"/><text fill="#000000" font-family="sans-serif" font-size="14" lengthAdjust="spacing" textLength="36" x="178.5" y="570.2285">street</text></g><!--class City--><g id="elem_City"><rect codeLine="19" fill="#F1F1F1" height="36.6211" id="City" rx="2.5" ry="2.5" style="stroke:#181818;stroke-width:0.5;" width="30" x="136.5" y="721.5"/><text fill="#000000" font-family="sans-serif" font-size="14" lengthAdjust="spacing" textLength="24" x="139.5" y="741.6074">City</text><line style="stroke:#181818;stroke-width:0.5;" x1="137.5" x2="165.5" y1="750.1211" y2="750.1211"/></g><!--class District--><g id="elem_District"><rect codeLine="20" fill="#F1F1F1" height="36.6211" id="District" rx="2.5" ry="2.5" style="stroke:#181818;stroke-width:0.5;" width="49" x="127" y="865"/><text fill="#000000" font-family="sans-serif" font-size="14" lengthAdjust="spacing" textLength="43" x="130" y="885.1074">District</text><line style="stroke:#181818;stroke-width:0.5;" x1="128" x2="175" y1="893.6211" y2="893.6211"/></g><!--class State--><g id="elem_State"><rect codeLine="21" fill="#F1F1F1" height="36.6211" id="State" rx="2.5" ry="2.5" style="stroke:#181818;stroke-width:0.5;" width="39" x="132" y="981"/><text fill="#000000" font-family="sans-serif" font-size="14" lengthAdjust="spacing" textLength="33" x="135" y="1001.1074">State</text><line style="stroke:#181818;stroke-width:0.5;" x1="133" x2="170" y1="1009.6211" y2="1009.6211"/></g><!--class ZipCode--><g id="elem_ZipCode"><rect codeLine="22" fill="#F1F1F1" height="36.6211" id="ZipCode" rx="2.5" ry="2.5" style="stroke:#181818;stroke-width:0.5;" width="59" x="214" y="721.5"/><text fill="#000000" font-family="sans-serif" font-size="14" lengthAdjust="spacing" textLength="53" x="217" y="741.6074">ZipCode</text><line style="stroke:#181818;stroke-width:0.5;" x1="215" x2="272" y1="750.1211" y2="750.1211"/></g><!--class Advertisement--><g id="elem_Advertisement"><rect codeLine="24" fill="#F1F1F1" height="129.7266" id="Advertisement" rx="2.5" ry="2.5" style="stroke:#181818;stroke-width:0.5;" width="125" x="127" y="123"/><text fill="#000000" font-family="sans-serif" font-size="14" lengthAdjust="spacing" textLength="90" x="144.5" y="143.1074">Advertisement</text><line style="stroke:#181818;stroke-width:0.5;" x1="128" x2="251" y1="151.6211" y2="151.6211"/><text fill="#000000" font-family="sans-serif" font-size="14" lengthAdjust="spacing" textLength="113" x="133" y="170.7285">responsible agent</text><text fill="#000000" font-family="sans-serif" font-size="14" lengthAdjust="spacing" textLength="31" x="133" y="189.3496">price</text><text fill="#000000" font-family="sans-serif" font-size="14" lengthAdjust="spacing" textLength="93" x="133" y="207.9707">comission type</text><text fill="#000000" font-family="sans-serif" font-size="14" lengthAdjust="spacing" textLength="62" x="133" y="226.5918">comission</text><text fill="#000000" font-family="sans-serif" font-size="14" lengthAdjust="spacing" textLength="100" x="133" y="245.2129">publication date</text></g><!--class Date--><g id="elem_Date"><rect codeLine="31" fill="#F1F1F1" height="92.4844" id="Date" rx="2.5" ry="2.5" style="stroke:#181818;stroke-width:0.5;" width="51" x="7" y="142"/><text fill="#000000" font-family="sans-serif" font-size="14" lengthAdjust="spacing" textLength="30" x="17.5" y="162.1074">Date</text><line style="stroke:#181818;stroke-width:0.5;" x1="8" x2="57" y1="170.6211" y2="170.6211"/><text fill="#000000" font-family="sans-serif" font-size="14" lengthAdjust="spacing" textLength="23" x="13" y="189.7285">day</text><text fill="#000000" font-family="sans-serif" font-size="14" lengthAdjust="spacing" textLength="39" x="13" y="208.3496">month</text><text fill="#000000" font-family="sans-serif" font-size="14" lengthAdjust="spacing" textLength="28" x="13" y="226.9707">year</text></g><!--class Sale--><g id="elem_Sale"><rect codeLine="36" fill="#F1F1F1" height="36.6211" id="Sale" rx="2.5" ry="2.5" style="stroke:#181818;stroke-width:0.5;" width="34" x="124.5" y="350.5"/><text fill="#000000" font-family="sans-serif" font-size="14" lengthAdjust="spacing" textLength="28" x="127.5" y="370.6074">Sale</text><line style="stroke:#181818;stroke-width:0.5;" x1="125.5" x2="157.5" y1="379.1211" y2="379.1211"/></g><!--class Lease--><g id="elem_Lease"><rect codeLine="37" fill="#F1F1F1" height="36.6211" id="Lease" rx="2.5" ry="2.5" style="stroke:#181818;stroke-width:0.5;" width="45" x="287" y="169.5"/><text fill="#000000" font-family="sans-serif" font-size="14" lengthAdjust="spacing" textLength="39" x="290" y="189.6074">Lease</text><line style="stroke:#181818;stroke-width:0.5;" x1="288" x2="331" y1="198.1211" y2="198.1211"/></g><!--class Property--><g id="elem_Property"><rect codeLine="39" fill="#F1F1F1" height="73.8633" id="Property" rx="2.5" ry="2.5" style="stroke:#181818;stroke-width:0.5;" width="166" x="193.5" y="332"/><text fill="#000000" font-family="sans-serif" font-size="14" lengthAdjust="spacing" textLength="54" x="249.5" y="352.1074">Property</text><line style="stroke:#181818;stroke-width:0.5;" x1="194.5" x2="358.5" y1="360.6211" y2="360.6211"/><text fill="#000000" font-family="sans-serif" font-size="14" lengthAdjust="spacing" textLength="29" x="199.5" y="379.7285">area</text><text fill="#000000" font-family="sans-serif" font-size="14" lengthAdjust="spacing" textLength="154" x="199.5" y="398.3496">distance from city center</text></g><!--class Land--><g id="elem_Land"><rect codeLine="43" fill="#F1F1F1" height="36.6211" id="Land" rx="2.5" ry="2.5" style="stroke:#181818;stroke-width:0.5;" width="38" x="257.5" y="531.5"/><text fill="#000000" font-family="sans-serif" font-size="14" lengthAdjust="spacing" textLength="32" x="260.5" y="551.6074">Land</text><line style="stroke:#181818;stroke-width:0.5;" x1="258.5" x2="294.5" y1="560.1211" y2="560.1211"/></g><!--class ResidentialProperty--><g id="elem_ResidentialProperty"><rect codeLine="44" fill="#F1F1F1" height="129.7266" id="ResidentialProperty" rx="2.5" ry="2.5" style="stroke:#181818;stroke-width:0.5;" width="176" x="330.5" y="485"/><text fill="#000000" font-family="sans-serif" font-size="14" lengthAdjust="spacing" textLength="124" x="356.5" y="505.1074">ResidentialProperty</text><line style="stroke:#181818;stroke-width:0.5;" x1="331.5" x2="505.5" y1="513.6211" y2="513.6211"/><text fill="#000000" font-family="sans-serif" font-size="14" lengthAdjust="spacing" textLength="131" x="336.5" y="532.7285">number of bedrooms</text><text fill="#000000" font-family="sans-serif" font-size="14" lengthAdjust="spacing" textLength="135" x="336.5" y="551.3496">number of bathrooms</text><text fill="#000000" font-family="sans-serif" font-size="14" lengthAdjust="spacing" textLength="164" x="336.5" y="569.9707">number of parking spaces</text><text fill="#000000" font-family="sans-serif" font-size="14" lengthAdjust="spacing" textLength="94" x="336.5" y="588.5918">central heating</text><text fill="#000000" font-family="sans-serif" font-size="14" lengthAdjust="spacing" textLength="96" x="336.5" y="607.2129">air conditioning</text></g><!--class Apartment--><g id="elem_Apartment"><rect codeLine="51" fill="#F1F1F1" height="36.6211" id="Apartment" rx="2.5" ry="2.5" style="stroke:#181818;stroke-width:0.5;" width="71" x="345" y="721.5"/><text fill="#000000" font-family="sans-serif" font-size="14" lengthAdjust="spacing" textLength="65" x="348" y="741.6074">Apartment</text><line style="stroke:#181818;stroke-width:0.5;" x1="346" x2="415" y1="750.1211" y2="750.1211"/></g><!--class House--><g id="elem_House"><rect codeLine="52" fill="#F1F1F1" height="92.4844" id="House" rx="2.5" ry="2.5" style="stroke:#181818;stroke-width:0.5;" width="104" x="451.5" y="694"/><text fill="#000000" font-family="sans-serif" font-size="14" lengthAdjust="spacing" textLength="40" x="483.5" y="714.1074">House</text><line style="stroke:#181818;stroke-width:0.5;" x1="452.5" x2="554.5" y1="722.6211" y2="722.6211"/><text fill="#000000" font-family="sans-serif" font-size="14" lengthAdjust="spacing" textLength="62" x="457.5" y="741.7285">basement</text><text fill="#000000" font-family="sans-serif" font-size="14" lengthAdjust="spacing" textLength="92" x="457.5" y="760.3496">inhabitable loft</text><text fill="#000000" font-family="sans-serif" font-size="14" lengthAdjust="spacing" textLength="85" x="457.5" y="778.9707">sun exposure</text></g><!--reverse link Advertisement to Sale--><g id="link_Advertisement_Sale"><path codeLine="58" d="M167.1,272.54 C159.27,301.72 151.22,331.76 146.28,350.16 " fill="none" id="Advertisement-backto-Sale" style="stroke:#181818;stroke-width:1.0;"/><polygon fill="none" points="160.37,270.62,172.31,253.12,173.89,274.25,160.37,270.62" style="stroke:#181818;stroke-width:1.0;"/></g><!--reverse link Advertisement to Lease--><g id="link_Advertisement_Lease"><path codeLine="59" d="M272.47,188 C277.22,188 281.97,188 286.71,188 " fill="none" id="Advertisement-backto-Lease" style="stroke:#181818;stroke-width:1.0;"/><polygon fill="none" points="272.31,195,252.31,188,272.31,181,272.31,195" style="stroke:#181818;stroke-width:1.0;"/></g><!--link Advertisement to Property--><g id="link_Advertisement_Property"><path codeLine="60" d="M220.66,253.12 C232.68,277.84 246.07,305.38 256.72,327.3 " fill="none" id="Advertisement-to-Property" style="stroke:#181818;stroke-width:1.0;"/><polygon fill="#181818" points="258.95,331.89,258.6159,322.0468,256.7655,327.3925,251.4198,325.542,258.95,331.89" style="stroke:#181818;stroke-width:1.0;"/><text fill="#000000" font-family="sans-serif" font-size="13" lengthAdjust="spacing" textLength="56" x="244.5" y="298.0283">describes</text><text fill="#000000" font-family="sans-serif" font-size="13" lengthAdjust="spacing" textLength="7" x="216.5124" y="274.7695">1</text><text fill="#000000" font-family="sans-serif" font-size="13" lengthAdjust="spacing" textLength="7" x="248.2005" y="320.8321">1</text></g><!--link Agent to Advertisement--><g id="link_Agent_Advertisement"><path codeLine="61" d="M189.5,44.29 C189.5,62.19 189.5,90.95 189.5,117.97 " fill="none" id="Agent-to-Advertisement" style="stroke:#181818;stroke-width:1.0;"/><polygon fill="#181818" points="189.5,123,193.5257,114.0115,189.5143,118,185.5257,113.9886,189.5,123" style="stroke:#181818;stroke-width:1.0;"/><text fill="#000000" font-family="sans-serif" font-size="13" lengthAdjust="spacing" textLength="55" x="190.5" y="89.0283">publishes</text><text fill="#000000" font-family="sans-serif" font-size="13" lengthAdjust="spacing" textLength="7" x="181.5594" y="65.7425">1</text><text fill="#000000" font-family="sans-serif" font-size="13" lengthAdjust="spacing" textLength="5" x="184.2109" y="111.5625">*</text></g><!--link Property to Adress--><g id="link_Property_Adress"><path codeLine="63" d="M245.89,406.11 C239.1,415.41 232.46,425.72 227.5,436 C214.97,462.01 207.1,494 202.58,517.3 " fill="none" id="Property-to-Adress" style="stroke:#181818;stroke-width:1.0;"/><polygon fill="#181818" points="201.61,522.43,207.2115,514.3292,202.5383,517.5169,199.3506,512.8438,201.61,522.43" style="stroke:#181818;stroke-width:1.0;"/><text fill="#000000" font-family="sans-serif" font-size="13" lengthAdjust="spacing" textLength="39" x="228.5" y="451.0283">has an</text><text fill="#000000" font-family="sans-serif" font-size="13" lengthAdjust="spacing" textLength="7" x="233.0273" y="428.0143">1</text><text fill="#000000" font-family="sans-serif" font-size="13" lengthAdjust="spacing" textLength="7" x="194.7511" y="511.1228">1</text></g><!--reverse link Property to Land--><g id="link_Property_Land"><path codeLine="64" d="M276.5,426.34 C276.5,462.52 276.5,507.13 276.5,531.34 " fill="none" id="Property-backto-Land" style="stroke:#181818;stroke-width:1.0;"/><polygon fill="none" points="269.5,426.22,276.5,406.22,283.5,426.22,269.5,426.22" style="stroke:#181818;stroke-width:1.0;"/></g><!--reverse link Property to ResidentialProperty--><g id="link_Property_ResidentialProperty"><path codeLine="65" d="M317.71,421.95 C333.33,441.63 351.29,464.27 367.68,484.94 " fill="none" id="Property-backto-ResidentialProperty" style="stroke:#181818;stroke-width:1.0;"/><polygon fill="none" points="312.18,426.24,305.24,406.22,323.15,417.54,312.18,426.24" style="stroke:#181818;stroke-width:1.0;"/></g><!--reverse link ResidentialProperty to Apartment--><g id="link_ResidentialProperty_Apartment"><path codeLine="66" d="M401.53,634.96 C394.99,667.31 388.13,701.25 384.09,721.25 " fill="none" id="ResidentialProperty-backto-Apartment" style="stroke:#181818;stroke-width:1.0;"/><polygon fill="none" points="394.71,633.39,405.53,615.17,408.43,636.16,394.71,633.39" style="stroke:#181818;stroke-width:1.0;"/></g><!--reverse link ResidentialProperty to House--><g id="link_ResidentialProperty_House"><path codeLine="67" d="M455.79,633.47 C465.15,654.18 474.86,675.65 483.05,693.78 " fill="none" id="ResidentialProperty-backto-House" style="stroke:#181818;stroke-width:1.0;"/><polygon fill="none" points="449.38,636.28,447.51,615.17,462.13,630.51,449.38,636.28" style="stroke:#181818;stroke-width:1.0;"/></g><!--link Adress to City--><g id="link_Adress_City"><path codeLine="69" d="M179.22,577.57 C167.91,595.68 154.46,620.69 148.5,645 C142.68,668.77 144.7,696.94 147.38,716.2 " fill="none" id="Adress-to-City" style="stroke:#181818;stroke-width:1.0;"/><polygon fill="#181818" points="148.15,721.38,150.7988,711.894,147.4229,716.4331,142.8838,713.0573,148.15,721.38" style="stroke:#181818;stroke-width:1.0;"/><text fill="#000000" font-family="sans-serif" font-size="13" lengthAdjust="spacing" textLength="50" x="149.5" y="660.0283">is part of</text><text fill="#000000" font-family="sans-serif" font-size="13" lengthAdjust="spacing" textLength="5" x="169.4146" y="599.9452">*</text><text fill="#000000" font-family="sans-serif" font-size="13" lengthAdjust="spacing" textLength="7" x="139.0522" y="710.2054">1</text></g><!--link Adress to ZipCode--><g id="link_Adress_ZipCode"><path codeLine="70" d="M203.99,577.54 C213.08,614.68 229.44,681.52 237.97,716.41 " fill="none" id="Adress-to-ZipCode" style="stroke:#181818;stroke-width:1.0;"/><polygon fill="#181818" points="239.17,721.32,240.9149,711.6269,237.9809,716.4634,233.1444,713.5295,239.17,721.32" style="stroke:#181818;stroke-width:1.0;"/><text fill="#000000" font-family="sans-serif" font-size="13" lengthAdjust="spacing" textLength="21" x="226.5" y="660.0283">has</text><text fill="#000000" font-family="sans-serif" font-size="13" lengthAdjust="spacing" textLength="5" x="199.9127" y="599.9082">*</text><text fill="#000000" font-family="sans-serif" font-size="13" lengthAdjust="spacing" textLength="7" x="229.7721" y="710.127">1</text></g><!--link City to District--><g id="link_City_District"><path codeLine="71" d="M151.5,758.63 C151.5,784.16 151.5,831.43 151.5,859.61 " fill="none" id="City-to-District" style="stroke:#181818;stroke-width:1.0;"/><polygon fill="#181818" points="151.5,864.64,155.5,855.64,151.5,859.64,147.5,855.64,151.5,864.64" style="stroke:#181818;stroke-width:1.0;"/><text fill="#000000" font-family="sans-serif" font-size="13" lengthAdjust="spacing" textLength="50" x="152.5" y="831.0283">is part of</text><text fill="#000000" font-family="sans-serif" font-size="13" lengthAdjust="spacing" textLength="5" x="145.8281" y="780.0395">*</text><text fill="#000000" font-family="sans-serif" font-size="13" lengthAdjust="spacing" textLength="7" x="143.4719" y="853.7297">1</text></g><!--link District to State--><g id="link_District_State"><path codeLine="72" d="M151.5,902.31 C151.5,922.06 151.5,953.96 151.5,975.56 " fill="none" id="District-to-State" style="stroke:#181818;stroke-width:1.0;"/><polygon fill="#181818" points="151.5,980.81,155.5,971.81,151.5,975.81,147.5,971.81,151.5,980.81" style="stroke:#181818;stroke-width:1.0;"/><text fill="#000000" font-family="sans-serif" font-size="13" lengthAdjust="spacing" textLength="50" x="152.5" y="947.0283">is part of</text><text fill="#000000" font-family="sans-serif" font-size="13" lengthAdjust="spacing" textLength="5" x="145.8281" y="923.7679">*</text><text fill="#000000" font-family="sans-serif" font-size="13" lengthAdjust="spacing" textLength="7" x="143.4281" y="969.614">1</text></g><!--reverse link Date to Advertisement--><g id="link_Date_Advertisement"><path codeLine="74" d="M63.52,188 C81.64,188 105.18,188 126.99,188 " fill="none" id="Date-backto-Advertisement" style="stroke:#181818;stroke-width:1.0;"/><polygon fill="#181818" points="58.07,188,67.07,192,63.07,188,67.07,184,58.07,188" style="stroke:#181818;stroke-width:1.0;"/><text fill="#000000" font-family="sans-serif" font-size="13" lengthAdjust="spacing" textLength="32" x="76.5" y="181.0283">has a</text><text fill="#000000" font-family="sans-serif" font-size="13" lengthAdjust="spacing" textLength="7" x="65.8826" y="182.718">1</text><text fill="#000000" font-family="sans-serif" font-size="13" lengthAdjust="spacing" textLength="7" x="111.945" y="184.0268">1</text></g><!--SRC=[TLDDZzGm3BtxLqHxMGcfB5n726cqUm1f3uYvSNCJJnjjcbIn2vI1_uxJQJkTORbKZZ_VUtRlMv6UTmyFVS0eGnVUsjGzs83CbVFOPEo0NtpiKItJfPXicrD7Hl90cqYFzWKREiWOo6IoWh49smHkqQKVFZRcY849u3xGKOmaattJYd6-LFaKOLCquTYBP5yFGfzjYWV_YymxWDOxCjPdgqCckoDfasC0c8hClg4ewyDbOZu1IoOI-3Ex7xsCi_daDUQjpC-3eD1iV_FzOt9qwVMTidYcJWUSG1ltARAlbJTECtljexMfyypAnyZORvxG3tNm5WjLuygK1SsJFaxWS0ILMLeO2VCQF61Oy3mJyehcIqwzmXbFW9aGdDB0QCaSTKcgZup6AYQwD7h6w6RpAx4g5yLZkBI9GrTJDkbeQd8vfOwtBfJsrgURUYbhPJq1OYZZCWRJabAC3Q3FHlVcV25S70kGlHPAqN1-Vqe3A_yQpyg2ZotMNh086z9HW8Tew6UVUCX5DBXQn8VVLJLfTElDrLclA__T-xkg-gZVXVVE4LkzCYKm7SwSyERkgcmtxOvRpOAbScrrlh5TYsmmhc55uAf9yolFAzB3Axx2wgBJVn8cuOeSPRv2FiCfjxtpNDOZkgRRy7pK1IwKr3Mm_0ZRsiMt9as_npRZNtd3rAoaJOh0Nm00]--></g></svg>