<?xml version="1.0" encoding="us-ascii" standalone="no"?><svg xmlns="http://www.w3.org/2000/svg" xmlns:xlink="http://www.w3.org/1999/xlink" contentStyleType="text/css" height="1250px" preserveAspectRatio="none" style="width:1357px;height:1250px;background:#FFFFFF;" version="1.1" viewBox="0 0 1357 1250" width="1357px" zoomAndPan="magnify"><defs/><g><rect fill="#FFFFFF" height="1117.6797" style="stroke:#181818;stroke-width:1.0;" width="10" x="120" y="67.2422"/><rect fill="#FFFFFF" height="31.291" style="stroke:#181818;stroke-width:1.0;" width="10" x="326.5" y="90.5332"/><rect fill="#FFFFFF" height="280.5996" style="stroke:#181818;stroke-width:1.0;" width="10" x="805" y="196.6973"/><rect fill="#FFFFFF" height="280.5996" style="stroke:#181818;stroke-width:1.0;" width="10" x="805" y="542.5098"/><rect fill="#FFFFFF" height="280.5996" style="stroke:#181818;stroke-width:1.0;" width="10" x="805" y="888.3223"/><rect fill="#FFFFFF" height="208.0176" style="stroke:#181818;stroke-width:1.0;" width="10" x="918" y="237.9883"/><rect fill="#FFFFFF" height="208.0176" style="stroke:#181818;stroke-width:1.0;" width="10" x="918" y="583.8008"/><rect fill="#FFFFFF" height="208.0176" style="stroke:#181818;stroke-width:1.0;" width="10" x="918" y="929.6133"/><rect fill="#FFFFFF" height="114.4844" style="stroke:#181818;stroke-width:1.0;" width="10" x="1026" y="300.2305"/><rect fill="#FFFFFF" height="114.4844" style="stroke:#181818;stroke-width:1.0;" width="10" x="1102.5" y="646.043"/><rect fill="#FFFFFF" height="114.4844" style="stroke:#181818;stroke-width:1.0;" width="10" x="1183" y="991.8555"/><rect fill="none" height="1040.0977" style="stroke:#000000;stroke-width:1.5;" width="1340" x="10" y="136.8242"/><line style="stroke:#181818;stroke-width:0.5;stroke-dasharray:5.0,5.0;" x1="125" x2="125" y1="57.2422" y2="1193.9219"/><line style="stroke:#181818;stroke-width:0.5;stroke-dasharray:5.0,5.0;" x1="331" x2="331" y1="57.2422" y2="1193.9219"/><line style="stroke:#181818;stroke-width:0.5;stroke-dasharray:5.0,5.0;" x1="809.5" x2="809.5" y1="57.2422" y2="1193.9219"/><line style="stroke:#181818;stroke-width:0.5;stroke-dasharray:5.0,5.0;" x1="923" x2="923" y1="937.4434" y2="1193.9219"/><line style="stroke:#181818;stroke-width:0.5;stroke-dasharray:5.0,5.0;" x1="1031" x2="1031" y1="308.0605" y2="1193.9219"/><line style="stroke:#181818;stroke-width:0.5;stroke-dasharray:5.0,5.0;" x1="1107" x2="1107" y1="653.873" y2="1193.9219"/><line style="stroke:#181818;stroke-width:0.5;stroke-dasharray:5.0,5.0;" x1="1188" x2="1188" y1="999.6855" y2="1193.9219"/><line style="stroke:#181818;stroke-width:0.5;stroke-dasharray:5.0,5.0;" x1="1309" x2="1309" y1="1061.9277" y2="1193.9219"/><rect fill="#E3E3E3" height="32.6211" rx="2.5" ry="2.5" style="stroke:#181818;stroke-width:0.5;" width="210" x="20" y="23.6211"/><text fill="#000000" font-family="sans-serif" font-size="14" lengthAdjust="spacing" textLength="196" x="27" y="45.7285">:CreateAnnoucementController</text><rect fill="#E3E3E3" height="32.6211" rx="2.5" ry="2.5" style="stroke:#181818;stroke-width:0.5;" width="210" x="20" y="1192.9219"/><text fill="#000000" font-family="sans-serif" font-size="14" lengthAdjust="spacing" textLength="196" x="27" y="1215.0293">:CreateAnnoucementController</text><rect fill="#E3E3E3" height="51.2422" rx="2.5" ry="2.5" style="stroke:#181818;stroke-width:0.5;" width="183" x="240" y="5"/><text fill="#000000" font-family="sans-serif" font-size="14" lengthAdjust="spacing" textLength="164" x="249.5" y="27.1074">advertisementsRepository</text><text fill="#000000" font-family="sans-serif" font-size="14" lengthAdjust="spacing" textLength="169" x="247" y="45.7285">:AdvertisementsRepository</text><rect fill="#E3E3E3" height="51.2422" rx="2.5" ry="2.5" style="stroke:#181818;stroke-width:0.5;" width="183" x="240" y="1192.9219"/><text fill="#000000" font-family="sans-serif" font-size="14" lengthAdjust="spacing" textLength="164" x="249.5" y="1215.0293">advertisementsRepository</text><text fill="#000000" font-family="sans-serif" font-size="14" lengthAdjust="spacing" textLength="169" x="247" y="1233.6504">:AdvertisementsRepository</text><rect fill="#E3E3E3" height="51.2422" rx="2.5" ry="2.5" style="stroke:#181818;stroke-width:0.5;" width="121" x="749.5" y="5"/><text fill="#000000" font-family="sans-serif" font-size="14" lengthAdjust="spacing" textLength="101" x="759.5" y="27.1074">salesRepository</text><text fill="#000000" font-family="sans-serif" font-size="14" lengthAdjust="spacing" textLength="107" x="756.5" y="45.7285">:SalesRepository</text><rect fill="#E3E3E3" height="51.2422" rx="2.5" ry="2.5" style="stroke:#181818;stroke-width:0.5;" width="121" x="749.5" y="1192.9219"/><text fill="#000000" font-family="sans-serif" font-size="14" lengthAdjust="spacing" textLength="101" x="759.5" y="1215.0293">salesRepository</text><text fill="#000000" font-family="sans-serif" font-size="14" lengthAdjust="spacing" textLength="107" x="756.5" y="1233.6504">:SalesRepository</text><rect fill="#E3E3E3" height="51.2422" rx="2.5" ry="2.5" style="stroke:#181818;stroke-width:0.5;" width="46" x="900" y="1192.9219"/><text fill="#000000" font-family="sans-serif" font-size="14" lengthAdjust="spacing" textLength="26" x="910" y="1215.0293">sale</text><text fill="#000000" font-family="sans-serif" font-size="14" lengthAdjust="spacing" textLength="32" x="907" y="1233.6504">:Sale</text><rect fill="#E3E3E3" height="51.2422" rx="2.5" ry="2.5" style="stroke:#181818;stroke-width:0.5;" width="50" x="1006" y="1192.9219"/><text fill="#000000" font-family="sans-serif" font-size="14" lengthAdjust="spacing" textLength="27" x="1017.5" y="1215.0293">land</text><text fill="#000000" font-family="sans-serif" font-size="14" lengthAdjust="spacing" textLength="36" x="1013" y="1233.6504">:Land</text><rect fill="#E3E3E3" height="51.2422" rx="2.5" ry="2.5" style="stroke:#181818;stroke-width:0.5;" width="83" x="1066" y="1192.9219"/><text fill="#000000" font-family="sans-serif" font-size="14" lengthAdjust="spacing" textLength="64" x="1075.5" y="1215.0293">apartment</text><text fill="#000000" font-family="sans-serif" font-size="14" lengthAdjust="spacing" textLength="69" x="1073" y="1233.6504">:Apartment</text><rect fill="#E3E3E3" height="51.2422" rx="2.5" ry="2.5" style="stroke:#181818;stroke-width:0.5;" width="58" x="1159" y="1192.9219"/><text fill="#000000" font-family="sans-serif" font-size="14" lengthAdjust="spacing" textLength="39" x="1168.5" y="1215.0293">house</text><text fill="#000000" font-family="sans-serif" font-size="14" lengthAdjust="spacing" textLength="44" x="1166" y="1233.6504">:House</text><rect fill="#E3E3E3" height="51.2422" rx="2.5" ry="2.5" style="stroke:#181818;stroke-width:0.5;" width="62" x="1278" y="1192.9219"/><text fill="#000000" font-family="sans-serif" font-size="14" lengthAdjust="spacing" textLength="43" x="1287.5" y="1215.0293">adress</text><text fill="#000000" font-family="sans-serif" font-size="14" lengthAdjust="spacing" textLength="48" x="1285" y="1233.6504">:Adress</text><rect fill="#FFFFFF" height="1117.6797" style="stroke:#181818;stroke-width:1.0;" width="10" x="120" y="67.2422"/><rect fill="#FFFFFF" height="31.291" style="stroke:#181818;stroke-width:1.0;" width="10" x="326.5" y="90.5332"/><rect fill="#FFFFFF" height="280.5996" style="stroke:#181818;stroke-width:1.0;" width="10" x="805" y="196.6973"/><rect fill="#FFFFFF" height="280.5996" style="stroke:#181818;stroke-width:1.0;" width="10" x="805" y="542.5098"/><rect fill="#FFFFFF" height="280.5996" style="stroke:#181818;stroke-width:1.0;" width="10" x="805" y="888.3223"/><rect fill="#FFFFFF" height="208.0176" style="stroke:#181818;stroke-width:1.0;" width="10" x="918" y="237.9883"/><rect fill="#FFFFFF" height="208.0176" style="stroke:#181818;stroke-width:1.0;" width="10" x="918" y="583.8008"/><rect fill="#FFFFFF" height="208.0176" style="stroke:#181818;stroke-width:1.0;" width="10" x="918" y="929.6133"/><rect fill="#FFFFFF" height="114.4844" style="stroke:#181818;stroke-width:1.0;" width="10" x="1026" y="300.2305"/><rect fill="#FFFFFF" height="114.4844" style="stroke:#181818;stroke-width:1.0;" width="10" x="1102.5" y="646.043"/><rect fill="#FFFFFF" height="114.4844" style="stroke:#181818;stroke-width:1.0;" width="10" x="1183" y="991.8555"/><polygon fill="#181818" points="314.5,86.5332,324.5,90.5332,314.5,94.5332,318.5,90.5332" style="stroke:#181818;stroke-width:1.0;"/><line style="stroke:#181818;stroke-width:1.0;" x1="130" x2="320.5" y1="90.5332" y2="90.5332"/><text fill="#000000" font-family="sans-serif" font-size="13" font-weight="bold" lengthAdjust="spacing" textLength="7" x="137" y="85.2705">1</text><text fill="#000000" font-family="sans-serif" font-size="13" lengthAdjust="spacing" textLength="121" x="148" y="85.2705">getSalesRepository()</text><polygon fill="#181818" points="141,117.8242,131,121.8242,141,125.8242,137,121.8242" style="stroke:#181818;stroke-width:1.0;"/><line style="stroke:#181818;stroke-width:1.0;stroke-dasharray:2.0,2.0;" x1="135" x2="330.5" y1="121.8242" y2="121.8242"/><text fill="#000000" font-family="sans-serif" font-size="13" font-weight="bold" lengthAdjust="spacing" textLength="7" x="147" y="116.5615">2</text><text fill="#000000" font-family="sans-serif" font-size="13" lengthAdjust="spacing" textLength="93" x="158" y="116.5615">salesRepository</text><path d="M10,136.8242 L71,136.8242 L71,146.1152 L61,156.1152 L10,156.1152 L10,136.8242 " fill="#EEEEEE" style="stroke:#000000;stroke-width:1.5;"/><rect fill="none" height="1040.0977" style="stroke:#000000;stroke-width:1.5;" width="1340" x="10" y="136.8242"/><text fill="#000000" font-family="sans-serif" font-size="13" font-weight="bold" lengthAdjust="spacing" textLength="16" x="25" y="151.8525">alt</text><text fill="#000000" font-family="sans-serif" font-size="11" font-weight="bold" lengthAdjust="spacing" textLength="112" x="86" y="150.6943">[propertyType=land]</text><polygon fill="#181818" points="793,192.6973,803,196.6973,793,200.6973,797,196.6973" style="stroke:#181818;stroke-width:1.0;"/><line style="stroke:#181818;stroke-width:1.0;" x1="130" x2="799" y1="196.6973" y2="196.6973"/><text fill="#000000" font-family="sans-serif" font-size="13" font-weight="bold" lengthAdjust="spacing" textLength="7" x="137" y="182.7891">3</text><text fill="#000000" font-family="sans-serif" font-size="13" lengthAdjust="spacing" textLength="356" x="148" y="174.1436">createSale(responsibleAgent,price,comissionType,comission,</text><text fill="#000000" font-family="sans-serif" font-size="13" lengthAdjust="spacing" textLength="337" x="148" y="191.4346">state,district,city,zipcode,street,area,distanceFromCenter)</text><polygon fill="#181818" points="888,223.9883,898,227.9883,888,231.9883,892,227.9883" style="stroke:#181818;stroke-width:1.0;"/><line style="stroke:#181818;stroke-width:1.0;" x1="815" x2="894" y1="227.9883" y2="227.9883"/><text fill="#000000" font-family="sans-serif" font-size="13" font-weight="bold" lengthAdjust="spacing" textLength="7" x="822" y="222.7256">4</text><text fill="#000000" font-family="sans-serif" font-size="13" lengthAdjust="spacing" textLength="4" x="833" y="222.7256">&#160;</text><rect fill="#E3E3E3" height="51.2422" rx="2.5" ry="2.5" style="stroke:#181818;stroke-width:0.5;" width="46" x="900" y="204.6973"/><text fill="#000000" font-family="sans-serif" font-size="14" lengthAdjust="spacing" textLength="26" x="910" y="226.8047">sale</text><text fill="#000000" font-family="sans-serif" font-size="14" lengthAdjust="spacing" textLength="32" x="907" y="245.4258">:Sale</text><polygon fill="#181818" points="994,286.2305,1004,290.2305,994,294.2305,998,290.2305" style="stroke:#181818;stroke-width:1.0;"/><line style="stroke:#181818;stroke-width:1.0;" x1="928" x2="1000" y1="290.2305" y2="290.2305"/><text fill="#000000" font-family="sans-serif" font-size="13" font-weight="bold" lengthAdjust="spacing" textLength="7" x="935" y="284.9678">5</text><text fill="#000000" font-family="sans-serif" font-size="13" lengthAdjust="spacing" textLength="43" x="946" y="284.9678">creates</text><rect fill="#E3E3E3" height="51.2422" rx="2.5" ry="2.5" style="stroke:#181818;stroke-width:0.5;" width="50" x="1006" y="266.9395"/><text fill="#000000" font-family="sans-serif" font-size="14" lengthAdjust="spacing" textLength="27" x="1017.5" y="289.0469">land</text><text fill="#000000" font-family="sans-serif" font-size="14" lengthAdjust="spacing" textLength="36" x="1013" y="307.668">:Land</text><polygon fill="#181818" points="1266,348.4727,1276,352.4727,1266,356.4727,1270,352.4727" style="stroke:#181818;stroke-width:1.0;"/><line style="stroke:#181818;stroke-width:1.0;" x1="1036" x2="1272" y1="352.4727" y2="352.4727"/><text fill="#000000" font-family="sans-serif" font-size="13" font-weight="bold" lengthAdjust="spacing" textLength="7" x="1043" y="347.21">6</text><text fill="#000000" font-family="sans-serif" font-size="13" lengthAdjust="spacing" textLength="43" x="1054" y="347.21">creates</text><rect fill="#E3E3E3" height="51.2422" rx="2.5" ry="2.5" style="stroke:#181818;stroke-width:0.5;" width="62" x="1278" y="329.1816"/><text fill="#000000" font-family="sans-serif" font-size="14" lengthAdjust="spacing" textLength="43" x="1287.5" y="351.2891">adress</text><text fill="#000000" font-family="sans-serif" font-size="14" lengthAdjust="spacing" textLength="48" x="1285" y="369.9102">:Adress</text><polygon fill="#181818" points="939,410.7148,929,414.7148,939,418.7148,935,414.7148" style="stroke:#181818;stroke-width:1.0;"/><line style="stroke:#181818;stroke-width:1.0;stroke-dasharray:2.0,2.0;" x1="933" x2="1030" y1="414.7148" y2="414.7148"/><text fill="#000000" font-family="sans-serif" font-size="13" font-weight="bold" lengthAdjust="spacing" textLength="7" x="945" y="409.4521">7</text><text fill="#000000" font-family="sans-serif" font-size="13" lengthAdjust="spacing" textLength="4" x="956" y="409.4521">&#160;</text><polygon fill="#181818" points="826,442.0059,816,446.0059,826,450.0059,822,446.0059" style="stroke:#181818;stroke-width:1.0;"/><line style="stroke:#181818;stroke-width:1.0;stroke-dasharray:2.0,2.0;" x1="820" x2="922" y1="446.0059" y2="446.0059"/><text fill="#000000" font-family="sans-serif" font-size="13" font-weight="bold" lengthAdjust="spacing" textLength="7" x="832" y="440.7432">8</text><text fill="#000000" font-family="sans-serif" font-size="13" lengthAdjust="spacing" textLength="4" x="843" y="440.7432">&#160;</text><polygon fill="#181818" points="141,473.2969,131,477.2969,141,481.2969,137,477.2969" style="stroke:#181818;stroke-width:1.0;"/><line style="stroke:#181818;stroke-width:1.0;stroke-dasharray:2.0,2.0;" x1="135" x2="809" y1="477.2969" y2="477.2969"/><text fill="#000000" font-family="sans-serif" font-size="13" font-weight="bold" lengthAdjust="spacing" textLength="7" x="147" y="472.0342">9</text><text fill="#000000" font-family="sans-serif" font-size="13" lengthAdjust="spacing" textLength="24" x="158" y="472.0342">sale</text><line style="stroke:#000000;stroke-width:1.0;stroke-dasharray:2.0,2.0;" x1="10" x2="1350" y1="486.2969" y2="486.2969"/><text fill="#000000" font-family="sans-serif" font-size="11" font-weight="bold" lengthAdjust="spacing" textLength="146" x="15" y="498.167">[propertyType=apartment]</text><polygon fill="#181818" points="793,538.5098,803,542.5098,793,546.5098,797,542.5098" style="stroke:#181818;stroke-width:1.0;"/><line style="stroke:#181818;stroke-width:1.0;" x1="130" x2="799" y1="542.5098" y2="542.5098"/><text fill="#000000" font-family="sans-serif" font-size="13" font-weight="bold" lengthAdjust="spacing" textLength="14" x="137" y="528.6016">10</text><text fill="#000000" font-family="sans-serif" font-size="13" lengthAdjust="spacing" textLength="543" x="155" y="519.9561">createSale(responsibleAgent,price,comissionType,comission,state,district,city,zipcode,street,</text><text fill="#000000" font-family="sans-serif" font-size="13" lengthAdjust="spacing" textLength="528" x="155" y="537.2471">area,distanceFromCenter,nBedrooms,nBathrooms,nParkingSpaces,heating,airConditianing)</text><polygon fill="#181818" points="888,569.8008,898,573.8008,888,577.8008,892,573.8008" style="stroke:#181818;stroke-width:1.0;"/><line style="stroke:#181818;stroke-width:1.0;" x1="815" x2="894" y1="573.8008" y2="573.8008"/><text fill="#000000" font-family="sans-serif" font-size="13" font-weight="bold" lengthAdjust="spacing" textLength="14" x="822" y="568.5381">11</text><text fill="#000000" font-family="sans-serif" font-size="13" lengthAdjust="spacing" textLength="4" x="840" y="568.5381">&#160;</text><rect fill="#E3E3E3" height="51.2422" rx="2.5" ry="2.5" style="stroke:#181818;stroke-width:0.5;" width="46" x="900" y="550.5098"/><text fill="#000000" font-family="sans-serif" font-size="14" lengthAdjust="spacing" textLength="26" x="910" y="572.6172">sale</text><text fill="#000000" font-family="sans-serif" font-size="14" lengthAdjust="spacing" textLength="32" x="907" y="591.2383">:Sale</text><polygon fill="#181818" points="1054,632.043,1064,636.043,1054,640.043,1058,636.043" style="stroke:#181818;stroke-width:1.0;"/><line style="stroke:#181818;stroke-width:1.0;" x1="928" x2="1060" y1="636.043" y2="636.043"/><text fill="#000000" font-family="sans-serif" font-size="13" font-weight="bold" lengthAdjust="spacing" textLength="14" x="935" y="630.7803">12</text><text fill="#000000" font-family="sans-serif" font-size="13" lengthAdjust="spacing" textLength="43" x="953" y="630.7803">creates</text><rect fill="#E3E3E3" height="51.2422" rx="2.5" ry="2.5" style="stroke:#181818;stroke-width:0.5;" width="83" x="1066" y="612.752"/><text fill="#000000" font-family="sans-serif" font-size="14" lengthAdjust="spacing" textLength="64" x="1075.5" y="634.8594">apartment</text><text fill="#000000" font-family="sans-serif" font-size="14" lengthAdjust="spacing" textLength="69" x="1073" y="653.4805">:Apartment</text><polygon fill="#181818" points="1266,694.2852,1276,698.2852,1266,702.2852,1270,698.2852" style="stroke:#181818;stroke-width:1.0;"/><line style="stroke:#181818;stroke-width:1.0;" x1="1112.5" x2="1272" y1="698.2852" y2="698.2852"/><text fill="#000000" font-family="sans-serif" font-size="13" font-weight="bold" lengthAdjust="spacing" textLength="14" x="1119.5" y="693.0225">13</text><text fill="#000000" font-family="sans-serif" font-size="13" lengthAdjust="spacing" textLength="4" x="1137.5" y="693.0225">&#160;</text><rect fill="#E3E3E3" height="51.2422" rx="2.5" ry="2.5" style="stroke:#181818;stroke-width:0.5;" width="62" x="1278" y="674.9941"/><text fill="#000000" font-family="sans-serif" font-size="14" lengthAdjust="spacing" textLength="43" x="1287.5" y="697.1016">adress</text><text fill="#000000" font-family="sans-serif" font-size="14" lengthAdjust="spacing" textLength="48" x="1285" y="715.7227">:Adress</text><polygon fill="#181818" points="939,756.5273,929,760.5273,939,764.5273,935,760.5273" style="stroke:#181818;stroke-width:1.0;"/><line style="stroke:#181818;stroke-width:1.0;stroke-dasharray:2.0,2.0;" x1="933" x2="1106.5" y1="760.5273" y2="760.5273"/><text fill="#000000" font-family="sans-serif" font-size="13" font-weight="bold" lengthAdjust="spacing" textLength="14" x="945" y="755.2646">14</text><text fill="#000000" font-family="sans-serif" font-size="13" lengthAdjust="spacing" textLength="4" x="963" y="755.2646">&#160;</text><polygon fill="#181818" points="826,787.8184,816,791.8184,826,795.8184,822,791.8184" style="stroke:#181818;stroke-width:1.0;"/><line style="stroke:#181818;stroke-width:1.0;stroke-dasharray:2.0,2.0;" x1="820" x2="922" y1="791.8184" y2="791.8184"/><text fill="#000000" font-family="sans-serif" font-size="13" font-weight="bold" lengthAdjust="spacing" textLength="14" x="832" y="786.5557">15</text><text fill="#000000" font-family="sans-serif" font-size="13" lengthAdjust="spacing" textLength="4" x="850" y="786.5557">&#160;</text><polygon fill="#181818" points="141,819.1094,131,823.1094,141,827.1094,137,823.1094" style="stroke:#181818;stroke-width:1.0;"/><line style="stroke:#181818;stroke-width:1.0;stroke-dasharray:2.0,2.0;" x1="135" x2="809" y1="823.1094" y2="823.1094"/><text fill="#000000" font-family="sans-serif" font-size="13" font-weight="bold" lengthAdjust="spacing" textLength="14" x="147" y="817.8467">16</text><text fill="#000000" font-family="sans-serif" font-size="13" lengthAdjust="spacing" textLength="24" x="165" y="817.8467">sale</text><line style="stroke:#000000;stroke-width:1.0;stroke-dasharray:2.0,2.0;" x1="10" x2="1350" y1="832.1094" y2="832.1094"/><text fill="#000000" font-family="sans-serif" font-size="11" font-weight="bold" lengthAdjust="spacing" textLength="124" x="15" y="843.9795">[propertyType=house]</text><polygon fill="#181818" points="793,884.3223,803,888.3223,793,892.3223,797,888.3223" style="stroke:#181818;stroke-width:1.0;"/><line style="stroke:#181818;stroke-width:1.0;" x1="130" x2="799" y1="888.3223" y2="888.3223"/><text fill="#000000" font-family="sans-serif" font-size="13" font-weight="bold" lengthAdjust="spacing" textLength="14" x="137" y="874.4141">17</text><text fill="#000000" font-family="sans-serif" font-size="13" lengthAdjust="spacing" textLength="638" x="155" y="865.7686">createSale(createSale(responsibleAgent,price,comissionType,comission,state,district,city,zipcode,street,area,</text><text fill="#000000" font-family="sans-serif" font-size="13" lengthAdjust="spacing" textLength="606" x="155" y="883.0596">distanceFromCenter,nBedrooms,nBathrooms,nParkingSpaces,heating,airConditianing,basement,loft,sun)</text><polygon fill="#181818" points="888,915.6133,898,919.6133,888,923.6133,892,919.6133" style="stroke:#181818;stroke-width:1.0;"/><line style="stroke:#181818;stroke-width:1.0;" x1="815" x2="894" y1="919.6133" y2="919.6133"/><text fill="#000000" font-family="sans-serif" font-size="13" font-weight="bold" lengthAdjust="spacing" textLength="14" x="822" y="914.3506">18</text><text fill="#000000" font-family="sans-serif" font-size="13" lengthAdjust="spacing" textLength="43" x="840" y="914.3506">creates</text><rect fill="#E3E3E3" height="51.2422" rx="2.5" ry="2.5" style="stroke:#181818;stroke-width:0.5;" width="46" x="900" y="896.3223"/><text fill="#000000" font-family="sans-serif" font-size="14" lengthAdjust="spacing" textLength="26" x="910" y="918.4297">sale</text><text fill="#000000" font-family="sans-serif" font-size="14" lengthAdjust="spacing" textLength="32" x="907" y="937.0508">:Sale</text><polygon fill="#181818" points="1147,977.8555,1157,981.8555,1147,985.8555,1151,981.8555" style="stroke:#181818;stroke-width:1.0;"/><line style="stroke:#181818;stroke-width:1.0;" x1="928" x2="1153" y1="981.8555" y2="981.8555"/><text fill="#000000" font-family="sans-serif" font-size="13" font-weight="bold" lengthAdjust="spacing" textLength="14" x="935" y="976.5928">19</text><text fill="#000000" font-family="sans-serif" font-size="13" lengthAdjust="spacing" textLength="43" x="953" y="976.5928">creates</text><rect fill="#E3E3E3" height="51.2422" rx="2.5" ry="2.5" style="stroke:#181818;stroke-width:0.5;" width="58" x="1159" y="958.5645"/><text fill="#000000" font-family="sans-serif" font-size="14" lengthAdjust="spacing" textLength="39" x="1168.5" y="980.6719">house</text><text fill="#000000" font-family="sans-serif" font-size="14" lengthAdjust="spacing" textLength="44" x="1166" y="999.293">:House</text><polygon fill="#181818" points="1266,1040.0977,1276,1044.0977,1266,1048.0977,1270,1044.0977" style="stroke:#181818;stroke-width:1.0;"/><line style="stroke:#181818;stroke-width:1.0;" x1="1193" x2="1272" y1="1044.0977" y2="1044.0977"/><text fill="#000000" font-family="sans-serif" font-size="13" font-weight="bold" lengthAdjust="spacing" textLength="14" x="1200" y="1038.835">20</text><text fill="#000000" font-family="sans-serif" font-size="13" lengthAdjust="spacing" textLength="43" x="1218" y="1038.835">creates</text><rect fill="#E3E3E3" height="51.2422" rx="2.5" ry="2.5" style="stroke:#181818;stroke-width:0.5;" width="62" x="1278" y="1020.8066"/><text fill="#000000" font-family="sans-serif" font-size="14" lengthAdjust="spacing" textLength="43" x="1287.5" y="1042.9141">adress</text><text fill="#000000" font-family="sans-serif" font-size="14" lengthAdjust="spacing" textLength="48" x="1285" y="1061.5352">:Adress</text><polygon fill="#181818" points="939,1102.3398,929,1106.3398,939,1110.3398,935,1106.3398" style="stroke:#181818;stroke-width:1.0;"/><line style="stroke:#181818;stroke-width:1.0;stroke-dasharray:2.0,2.0;" x1="933" x2="1187" y1="1106.3398" y2="1106.3398"/><text fill="#000000" font-family="sans-serif" font-size="13" font-weight="bold" lengthAdjust="spacing" textLength="14" x="945" y="1101.0771">21</text><text fill="#000000" font-family="sans-serif" font-size="13" lengthAdjust="spacing" textLength="4" x="963" y="1101.0771">&#160;</text><polygon fill="#181818" points="826,1133.6309,816,1137.6309,826,1141.6309,822,1137.6309" style="stroke:#181818;stroke-width:1.0;"/><line style="stroke:#181818;stroke-width:1.0;stroke-dasharray:2.0,2.0;" x1="820" x2="922" y1="1137.6309" y2="1137.6309"/><text fill="#000000" font-family="sans-serif" font-size="13" font-weight="bold" lengthAdjust="spacing" textLength="14" x="832" y="1132.3682">22</text><text fill="#000000" font-family="sans-serif" font-size="13" lengthAdjust="spacing" textLength="4" x="850" y="1132.3682">&#160;</text><polygon fill="#181818" points="141,1164.9219,131,1168.9219,141,1172.9219,137,1168.9219" style="stroke:#181818;stroke-width:1.0;"/><line style="stroke:#181818;stroke-width:1.0;stroke-dasharray:2.0,2.0;" x1="135" x2="809" y1="1168.9219" y2="1168.9219"/><text fill="#000000" font-family="sans-serif" font-size="13" font-weight="bold" lengthAdjust="spacing" textLength="14" x="147" y="1163.6592">23</text><text fill="#000000" font-family="sans-serif" font-size="13" lengthAdjust="spacing" textLength="24" x="165" y="1163.6592">sale</text><!--SRC=[jLJ1Rjim3BthAuIUsa3vWG0Ba0KOTjXXM7hCXP5PHwWj6PBS8llwKRGJoqwy1aDtiKdgaQBU4nLUZMt0GorhPvq-UbUZZBv54Iuh3UXNA74NJnLAZpg2BQiS48vGk7TZI_a2LK0XA1oDDWtOA1zMMuyGSMEjQpNMQEFMsUXTLQ5_a13au8uJeNX3SWFdX5_Ok62YywUzNMrcbhZUNDwuUe0AnqLtumZNOjHrOe- -GCQ82cn1Y1_qOqJo9qTBNceldULiTysVlN72qRKXxVez_Hd8aIbX7aDWUfBHav5C8Q2DphRrWKW67SqRAP8JBwJCtELwZiDLYN72q-CJPyjBsLd-6JMpk5okX_rN4t4uiy2FTn1GHTburz3owVdKu1VcdlFput7zbUQBcOxpI2GrpWPpg71JKb7LUADHQLUR48opgTRWgRqDaL9LOK8aO5JQn9FwRHhj2bGKGumAg3mZm6hyHfErfSBeftHrLoo5sEgQMoo46254-YpNwJYBHTzvo31yplH9sYN9CnI7kxeYOx6ZXklsZEIhZCxQkj9dAafNGI2z06C9XYlzwJhSeSBUpkYWx5Sil7Dr80lYiJT_WgU7hTpHguT17QapyXGOJtqN9XgmvD-juHMgr_72oKqn1yOkrY1h5hlMDEFwxyBEYNgFeDtJyx6O_rLNLdLlFrTNTO3kKL6LUuagjFPfCeT1Z1GUnBjM-dmTbcicR1RSqPb2RDqOu66jLtmoUfaW8zLlJEW_ZRGj_W00]--></g></svg>