<?xml version="1.0" encoding="us-ascii" standalone="no"?><svg xmlns="http://www.w3.org/2000/svg" xmlns:xlink="http://www.w3.org/1999/xlink" contentStyleType="text/css" height="334px" preserveAspectRatio="none" style="width:331px;height:334px;background:#FFFFFF;" version="1.1" viewBox="0 0 331 334" width="331px" zoomAndPan="magnify"><defs/><g><!--class LoadHubsFromFile--><g id="elem_LoadHubsFromFile"><rect codeLine="2" fill="#F1F1F1" height="66.6211" id="LoadHubsFromFile" rx="2.5" ry="2.5" style="stroke:#181818;stroke-width:0.5;" width="152" x="38" y="261"/><ellipse cx="53" cy="277" fill="#ADD1B2" rx="11" ry="11" style="stroke:#181818;stroke-width:1.0;"/><path d="M55.7656,272.875 Q55.9219,272.6563 56.1094,272.5469 Q56.2969,272.4375 56.5156,272.4375 Q56.8906,272.4375 57.125,272.7031 Q57.3594,272.9531 57.3594,273.5625 L57.3594,275.0156 Q57.3594,275.625 57.125,275.8906 Q56.8906,276.1563 56.5156,276.1563 Q56.1719,276.1563 55.9688,275.9531 Q55.7656,275.7656 55.6563,275.25 Q55.6094,274.8906 55.4219,274.7031 Q55.0938,274.3281 54.4844,274.1094 Q53.875,273.8906 53.25,273.8906 Q52.4844,273.8906 51.8438,274.2188 Q51.2188,274.5469 50.7188,275.2969 Q50.2344,276.0469 50.2344,277.0781 L50.2344,278.1719 Q50.2344,279.4063 51.125,280.2344 Q52.0156,281.0469 53.6094,281.0469 Q54.5469,281.0469 55.2031,280.7969 Q55.5938,280.6406 56.0156,280.2031 Q56.2813,279.9375 56.4219,279.8594 Q56.5781,279.7813 56.7813,279.7813 Q57.1094,279.7813 57.3594,280.0469 Q57.625,280.2969 57.625,280.6406 Q57.625,280.9844 57.2813,281.3906 Q56.7813,281.9688 55.9844,282.2969 Q54.9063,282.75 53.6094,282.75 Q52.0938,282.75 50.8906,282.125 Q49.9063,281.625 49.2188,280.5625 Q48.5313,279.4844 48.5313,278.2031 L48.5313,277.0469 Q48.5313,275.7188 49.1406,274.5781 Q49.7656,273.4219 50.8594,272.8125 Q51.9531,272.1875 53.1875,272.1875 Q53.9219,272.1875 54.5625,272.3594 Q55.2188,272.5156 55.7656,272.875 Z " fill="#000000"/><text fill="#000000" font-family="sans-serif" font-size="14" lengthAdjust="spacing" textLength="120" x="67" y="282.7969">LoadHubsFromFile</text><line style="stroke:#181818;stroke-width:0.5;" x1="39" x2="189" y1="293" y2="293"/><line style="stroke:#181818;stroke-width:0.5;" x1="39" x2="189" y1="301" y2="301"/><ellipse cx="49" cy="315.8105" fill="#84BE84" rx="3" ry="3" style="stroke:#038048;stroke-width:1.0;"/><text fill="#000000" font-family="sans-serif" font-size="14" lengthAdjust="spacing" textLength="125" x="58" y="320.1074">loadHubsFormFile()</text></g><!--class LoadHubsFromFileUI--><g id="elem_LoadHubsFromFileUI"><rect codeLine="7" fill="#F1F1F1" height="66.6211" id="LoadHubsFromFileUI" rx="2.5" ry="2.5" style="stroke:#181818;stroke-width:0.5;" width="164" x="32" y="7"/><ellipse cx="47" cy="23" fill="#ADD1B2" rx="11" ry="11" style="stroke:#181818;stroke-width:1.0;"/><path d="M49.7656,18.875 Q49.9219,18.6563 50.1094,18.5469 Q50.2969,18.4375 50.5156,18.4375 Q50.8906,18.4375 51.125,18.7031 Q51.3594,18.9531 51.3594,19.5625 L51.3594,21.0156 Q51.3594,21.625 51.125,21.8906 Q50.8906,22.1563 50.5156,22.1563 Q50.1719,22.1563 49.9688,21.9531 Q49.7656,21.7656 49.6563,21.25 Q49.6094,20.8906 49.4219,20.7031 Q49.0938,20.3281 48.4844,20.1094 Q47.875,19.8906 47.25,19.8906 Q46.4844,19.8906 45.8438,20.2188 Q45.2188,20.5469 44.7188,21.2969 Q44.2344,22.0469 44.2344,23.0781 L44.2344,24.1719 Q44.2344,25.4063 45.125,26.2344 Q46.0156,27.0469 47.6094,27.0469 Q48.5469,27.0469 49.2031,26.7969 Q49.5938,26.6406 50.0156,26.2031 Q50.2813,25.9375 50.4219,25.8594 Q50.5781,25.7813 50.7813,25.7813 Q51.1094,25.7813 51.3594,26.0469 Q51.625,26.2969 51.625,26.6406 Q51.625,26.9844 51.2813,27.3906 Q50.7813,27.9688 49.9844,28.2969 Q48.9063,28.75 47.6094,28.75 Q46.0938,28.75 44.8906,28.125 Q43.9063,27.625 43.2188,26.5625 Q42.5313,25.4844 42.5313,24.2031 L42.5313,23.0469 Q42.5313,21.7188 43.1406,20.5781 Q43.7656,19.4219 44.8594,18.8125 Q45.9531,18.1875 47.1875,18.1875 Q47.9219,18.1875 48.5625,18.3594 Q49.2188,18.5156 49.7656,18.875 Z " fill="#000000"/><text fill="#000000" font-family="sans-serif" font-size="14" lengthAdjust="spacing" textLength="132" x="61" y="28.7969">LoadHubsFromFileUI</text><line style="stroke:#181818;stroke-width:0.5;" x1="33" x2="195" y1="39" y2="39"/><line style="stroke:#181818;stroke-width:0.5;" x1="33" x2="195" y1="47" y2="47"/><ellipse cx="43" cy="61.8105" fill="#84BE84" rx="3" ry="3" style="stroke:#038048;stroke-width:1.0;"/><text fill="#000000" font-family="sans-serif" font-size="14" lengthAdjust="spacing" textLength="31" x="52" y="66.1074">run()</text></g><!--class LoadHubsFromFileController--><g id="elem_LoadHubsFromFileController"><rect codeLine="11" fill="#F1F1F1" height="66.6211" id="LoadHubsFromFileController" rx="2.5" ry="2.5" style="stroke:#181818;stroke-width:0.5;" width="214" x="7" y="134"/><ellipse cx="22" cy="150" fill="#ADD1B2" rx="11" ry="11" style="stroke:#181818;stroke-width:1.0;"/><path d="M24.7656,145.875 Q24.9219,145.6563 25.1094,145.5469 Q25.2969,145.4375 25.5156,145.4375 Q25.8906,145.4375 26.125,145.7031 Q26.3594,145.9531 26.3594,146.5625 L26.3594,148.0156 Q26.3594,148.625 26.125,148.8906 Q25.8906,149.1563 25.5156,149.1563 Q25.1719,149.1563 24.9688,148.9531 Q24.7656,148.7656 24.6563,148.25 Q24.6094,147.8906 24.4219,147.7031 Q24.0938,147.3281 23.4844,147.1094 Q22.875,146.8906 22.25,146.8906 Q21.4844,146.8906 20.8438,147.2188 Q20.2188,147.5469 19.7188,148.2969 Q19.2344,149.0469 19.2344,150.0781 L19.2344,151.1719 Q19.2344,152.4063 20.125,153.2344 Q21.0156,154.0469 22.6094,154.0469 Q23.5469,154.0469 24.2031,153.7969 Q24.5938,153.6406 25.0156,153.2031 Q25.2813,152.9375 25.4219,152.8594 Q25.5781,152.7813 25.7813,152.7813 Q26.1094,152.7813 26.3594,153.0469 Q26.625,153.2969 26.625,153.6406 Q26.625,153.9844 26.2813,154.3906 Q25.7813,154.9688 24.9844,155.2969 Q23.9063,155.75 22.6094,155.75 Q21.0938,155.75 19.8906,155.125 Q18.9063,154.625 18.2188,153.5625 Q17.5313,152.4844 17.5313,151.2031 L17.5313,150.0469 Q17.5313,148.7188 18.1406,147.5781 Q18.7656,146.4219 19.8594,145.8125 Q20.9531,145.1875 22.1875,145.1875 Q22.9219,145.1875 23.5625,145.3594 Q24.2188,145.5156 24.7656,145.875 Z " fill="#000000"/><text fill="#000000" font-family="sans-serif" font-size="14" lengthAdjust="spacing" textLength="182" x="36" y="155.7969">LoadHubsFromFileController</text><line style="stroke:#181818;stroke-width:0.5;" x1="8" x2="220" y1="166" y2="166"/><line style="stroke:#181818;stroke-width:0.5;" x1="8" x2="220" y1="174" y2="174"/><ellipse cx="18" cy="188.8105" fill="#84BE84" rx="3" ry="3" style="stroke:#038048;stroke-width:1.0;"/><text fill="#000000" font-family="sans-serif" font-size="14" lengthAdjust="spacing" textLength="69" x="27" y="193.1074">loadHubs()</text></g><!--class Runnable--><g id="elem_Runnable"><rect codeLine="15" fill="#F1F1F1" height="66.6211" id="Runnable" rx="2.5" ry="2.5" style="stroke:#181818;stroke-width:0.5;" width="93" x="231.5" y="7"/><ellipse cx="246.5" cy="23" fill="#B4A7E5" rx="11" ry="11" style="stroke:#181818;stroke-width:1.0;"/><path d="M247.4531,19.6406 L247.4531,26.2969 L249.1719,26.2969 Q249.7813,26.2969 250.0469,26.5313 Q250.3125,26.7656 250.3125,27.1563 Q250.3125,27.5313 250.0469,27.7656 Q249.7813,28 249.1719,28 L244.0313,28 Q243.4219,28 243.1563,27.7656 Q242.8906,27.5313 242.8906,27.1406 Q242.8906,26.7656 243.1563,26.5313 Q243.4219,26.2969 244.0313,26.2969 L245.75,26.2969 L245.75,19.6406 L244.0313,19.6406 Q243.4219,19.6406 243.1563,19.4063 Q242.8906,19.1719 242.8906,18.7813 Q242.8906,18.4063 243.1563,18.1719 Q243.4219,17.9375 244.0313,17.9375 L249.1719,17.9375 Q249.7813,17.9375 250.0469,18.1719 Q250.3125,18.4063 250.3125,18.7813 Q250.3125,19.1719 250.0469,19.4063 Q249.7813,19.6406 249.1719,19.6406 L247.4531,19.6406 Z " fill="#000000"/><text fill="#000000" font-family="sans-serif" font-size="14" font-style="italic" lengthAdjust="spacing" textLength="61" x="260.5" y="28.7969">Runnable</text><line style="stroke:#181818;stroke-width:0.5;" x1="232.5" x2="323.5" y1="39" y2="39"/><line style="stroke:#181818;stroke-width:0.5;" x1="232.5" x2="323.5" y1="47" y2="47"/><ellipse cx="242.5" cy="61.8105" fill="#84BE84" rx="3" ry="3" style="stroke:#038048;stroke-width:1.0;"/><text fill="#000000" font-family="sans-serif" font-size="14" lengthAdjust="spacing" textLength="31" x="251.5" y="66.1074">run()</text></g><!--reverse link LoadHubsFromFileUI to Runnable--><g id="link_LoadHubsFromFileUI_Runnable"><path codeLine="19" d="M214.32,40.5 C226.02,40.5 219.72,40.5 231.42,40.5 " fill="none" id="LoadHubsFromFileUI-backto-Runnable" style="stroke:#181818;stroke-width:1.0;"/><polygon fill="none" points="196.32,40.5,214.32,46.5,214.32,34.5,196.32,40.5" style="stroke:#181818;stroke-width:1.0;"/></g><!--link LoadHubsFromFileUI to LoadHubsFromFileController--><g id="link_LoadHubsFromFileUI_LoadHubsFromFileController"><path codeLine="20" d="M114,74.02 C114,92.39 114,109.29 114,127.71 " fill="none" id="LoadHubsFromFileUI-to-LoadHubsFromFileController" style="stroke:#181818;stroke-width:1.0;stroke-dasharray:7.0,7.0;"/><polygon fill="#181818" points="114,133.71,118,124.71,114,128.71,110,124.71,114,133.71" style="stroke:#181818;stroke-width:1.0;"/></g><!--link LoadHubsFromFileController to LoadHubsFromFile--><g id="link_LoadHubsFromFileController_LoadHubsFromFile"><path codeLine="21" d="M114,201.02 C114,219.39 114,236.29 114,254.71 " fill="none" id="LoadHubsFromFileController-to-LoadHubsFromFile" style="stroke:#181818;stroke-width:1.0;stroke-dasharray:7.0,7.0;"/><polygon fill="#181818" points="114,260.71,118,251.71,114,255.71,110,251.71,114,260.71" style="stroke:#181818;stroke-width:1.0;"/></g><!--SRC=[Iyv9B2vMyCbFJF4eJIfsAyhFTSlCILMevk9I009jXHoOJ7uHM4P3awkMYoiPgwvGJw0-YBQYqZnyAftpyqgAydDoKelWEc0MGRHbvfMa5gKb9gSg19NcvIKcWPs4PZHSHZSdDQr4jyOEYuEuiBXHJyyEZuEuyBWLcquk0000]--></g></svg>