<?xml version="1.0" encoding="us-ascii" standalone="no"?><svg xmlns="http://www.w3.org/2000/svg" xmlns:xlink="http://www.w3.org/1999/xlink" contentStyleType="text/css" height="288px" preserveAspectRatio="none" style="width:362px;height:288px;background:#FFFFFF;" version="1.1" viewBox="0 0 362 288" width="362px" zoomAndPan="magnify"><defs/><g><text fill="#000000" font-family="sans-serif" font-size="14" font-weight="bold" lengthAdjust="spacing" textLength="186" x="87.25" y="30.1074">System Sequence Diagram</text><line style="stroke:#181818;stroke-width:0.5;stroke-dasharray:5.0,5.0;" x1="66" x2="66" y1="123.2422" y2="205.8242"/><line style="stroke:#181818;stroke-width:0.5;stroke-dasharray:5.0,5.0;" x1="327.5" x2="327.5" y1="123.2422" y2="205.8242"/><text fill="#000000" font-family="sans-serif" font-size="14" lengthAdjust="spacing" textLength="117" x="5" y="119.7285">GestorDistribui&#231;&#227;o</text><ellipse cx="66.5" cy="53.1211" fill="#E2E2F0" rx="8" ry="8" style="stroke:#181818;stroke-width:0.5;"/><path d="M66.5,61.1211 L66.5,88.1211 M53.5,69.1211 L79.5,69.1211 M66.5,88.1211 L53.5,103.1211 M66.5,88.1211 L79.5,103.1211 " fill="none" style="stroke:#181818;stroke-width:0.5;"/><text fill="#000000" font-family="sans-serif" font-size="14" lengthAdjust="spacing" textLength="117" x="5" y="219.9316">GestorDistribui&#231;&#227;o</text><ellipse cx="66.5" cy="231.9453" fill="#E2E2F0" rx="8" ry="8" style="stroke:#181818;stroke-width:0.5;"/><path d="M66.5,239.9453 L66.5,266.9453 M53.5,247.9453 L79.5,247.9453 M66.5,266.9453 L53.5,281.9453 M66.5,266.9453 L79.5,281.9453 " fill="none" style="stroke:#181818;stroke-width:0.5;"/><rect fill="#E2E2F0" height="32.6211" rx="2.5" ry="2.5" style="stroke:#181818;stroke-width:0.5;" width="58" x="298.5" y="89.6211"/><text fill="#000000" font-family="sans-serif" font-size="14" lengthAdjust="spacing" textLength="44" x="305.5" y="111.7285">system</text><rect fill="#E2E2F0" height="32.6211" rx="2.5" ry="2.5" style="stroke:#181818;stroke-width:0.5;" width="58" x="298.5" y="204.8242"/><text fill="#000000" font-family="sans-serif" font-size="14" lengthAdjust="spacing" textLength="44" x="305.5" y="226.9316">system</text><polygon fill="#181818" points="315.5,152.5332,325.5,156.5332,315.5,160.5332,319.5,156.5332" style="stroke:#181818;stroke-width:1.0;"/><line style="stroke:#181818;stroke-width:1.0;stroke-dasharray:2.0,2.0;" x1="66.5" x2="321.5" y1="156.5332" y2="156.5332"/><text fill="#000000" font-family="sans-serif" font-size="13" lengthAdjust="spacing" textLength="237" x="73.5" y="151.2705">come&#231;a o pedido de importa&#231;&#227;o de Hubs</text><polygon fill="#181818" points="77.5,183.8242,67.5,187.8242,77.5,191.8242,73.5,187.8242" style="stroke:#181818;stroke-width:1.0;"/><line style="stroke:#181818;stroke-width:1.0;stroke-dasharray:2.0,2.0;" x1="71.5" x2="326.5" y1="187.8242" y2="187.8242"/><text fill="#000000" font-family="sans-serif" font-size="13" lengthAdjust="spacing" textLength="230" x="83.5" y="182.5615">retorna o grafo com os hubs carregados</text><!--SRC=[9Own4S8m34LxJ_4No08fg787VIPGR65qXoDZAGNpK3185iCXbKx_zDwNYpyPyzkS2sP-RRn6nYIK6vKGABesNDdwcCIyoRB9_jq_2ZBaKAcvHAcqEkoKzDn2o1Y62sn4rCBxbw2ed2Gf4aDArUPqUlf-svQEs1_98nhtjlL0-XDtFHHGmwDV8L9hd2bf1tu0]--></g></svg>