<?xml version="1.0" encoding="us-ascii" standalone="no"?><svg xmlns="http://www.w3.org/2000/svg" xmlns:xlink="http://www.w3.org/1999/xlink" contentStyleType="text/css" height="1194px" preserveAspectRatio="none" style="width:1373px;height:1194px;background:#FFFFFF;" version="1.1" viewBox="0 0 1373 1194" width="1373px" zoomAndPan="magnify"><defs/><g><rect fill="#FFFFFF" height="1061.8164" style="stroke:#181818;stroke-width:1.0;" width="10" x="120" y="67.2422"/><rect fill="#FFFFFF" height="31.291" style="stroke:#181818;stroke-width:1.0;" width="10" x="326.5" y="90.5332"/><rect fill="#FFFFFF" height="261.9785" style="stroke:#181818;stroke-width:1.0;" width="10" x="821" y="196.6973"/><rect fill="#FFFFFF" height="261.9785" style="stroke:#181818;stroke-width:1.0;" width="10" x="821" y="523.8887"/><rect fill="#FFFFFF" height="261.9785" style="stroke:#181818;stroke-width:1.0;" width="10" x="821" y="851.0801"/><rect fill="#FFFFFF" height="189.3965" style="stroke:#181818;stroke-width:1.0;" width="10" x="939.5" y="237.9883"/><rect fill="#FFFFFF" height="189.3965" style="stroke:#181818;stroke-width:1.0;" width="10" x="939.5" y="565.1797"/><rect fill="#FFFFFF" height="189.3965" style="stroke:#181818;stroke-width:1.0;" width="10" x="939.5" y="892.3711"/><rect fill="#FFFFFF" height="95.8633" style="stroke:#181818;stroke-width:1.0;" width="10" x="1047.5" y="300.2305"/><rect fill="#FFFFFF" height="95.8633" style="stroke:#181818;stroke-width:1.0;" width="10" x="1124" y="627.4219"/><rect fill="#FFFFFF" height="95.8633" style="stroke:#181818;stroke-width:1.0;" width="10" x="1204.5" y="954.6133"/><rect fill="none" height="984.2344" style="stroke:#000000;stroke-width:1.5;" width="1356.5" x="10" y="136.8242"/><line style="stroke:#181818;stroke-width:0.5;stroke-dasharray:5.0,5.0;" x1="125" x2="125" y1="57.2422" y2="1138.0586"/><line style="stroke:#181818;stroke-width:0.5;stroke-dasharray:5.0,5.0;" x1="331" x2="331" y1="57.2422" y2="1138.0586"/><line style="stroke:#181818;stroke-width:0.5;stroke-dasharray:5.0,5.0;" x1="826" x2="826" y1="57.2422" y2="1138.0586"/><line style="stroke:#181818;stroke-width:0.5;stroke-dasharray:5.0,5.0;" x1="944" x2="944" y1="900.2012" y2="1138.0586"/><line style="stroke:#181818;stroke-width:0.5;stroke-dasharray:5.0,5.0;" x1="1052.5" x2="1052.5" y1="308.0605" y2="1138.0586"/><line style="stroke:#181818;stroke-width:0.5;stroke-dasharray:5.0,5.0;" x1="1128.5" x2="1128.5" y1="635.252" y2="1138.0586"/><line style="stroke:#181818;stroke-width:0.5;stroke-dasharray:5.0,5.0;" x1="1209.5" x2="1209.5" y1="962.4434" y2="1138.0586"/><line style="stroke:#181818;stroke-width:0.5;stroke-dasharray:5.0,5.0;" x1="1327.5" x2="1327.5" y1="1015.375" y2="1138.0586"/><rect fill="#E3E3E3" height="32.6211" rx="2.5" ry="2.5" style="stroke:#181818;stroke-width:0.5;" width="210" x="20" y="23.6211"/><text fill="#000000" font-family="sans-serif" font-size="14" lengthAdjust="spacing" textLength="196" x="27" y="45.7285">:CreateAnnoucementController</text><rect fill="#E3E3E3" height="32.6211" rx="2.5" ry="2.5" style="stroke:#181818;stroke-width:0.5;" width="210" x="20" y="1137.0586"/><text fill="#000000" font-family="sans-serif" font-size="14" lengthAdjust="spacing" textLength="196" x="27" y="1159.166">:CreateAnnoucementController</text><rect fill="#E3E3E3" height="51.2422" rx="2.5" ry="2.5" style="stroke:#181818;stroke-width:0.5;" width="183" x="240" y="5"/><text fill="#000000" font-family="sans-serif" font-size="14" lengthAdjust="spacing" textLength="164" x="249.5" y="27.1074">advertisementsRepository</text><text fill="#000000" font-family="sans-serif" font-size="14" lengthAdjust="spacing" textLength="169" x="247" y="45.7285">:AdvertisementsRepository</text><rect fill="#E3E3E3" height="51.2422" rx="2.5" ry="2.5" style="stroke:#181818;stroke-width:0.5;" width="183" x="240" y="1137.0586"/><text fill="#000000" font-family="sans-serif" font-size="14" lengthAdjust="spacing" textLength="164" x="249.5" y="1159.166">advertisementsRepository</text><text fill="#000000" font-family="sans-serif" font-size="14" lengthAdjust="spacing" textLength="169" x="247" y="1177.7871">:AdvertisementsRepository</text><rect fill="#E3E3E3" height="51.2422" rx="2.5" ry="2.5" style="stroke:#181818;stroke-width:0.5;" width="132" x="760" y="5"/><text fill="#000000" font-family="sans-serif" font-size="14" lengthAdjust="spacing" textLength="109" x="771.5" y="27.1074">leasesRepository</text><text fill="#000000" font-family="sans-serif" font-size="14" lengthAdjust="spacing" textLength="118" x="767" y="45.7285">:LeasesRepository</text><rect fill="#E3E3E3" height="51.2422" rx="2.5" ry="2.5" style="stroke:#181818;stroke-width:0.5;" width="132" x="760" y="1137.0586"/><text fill="#000000" font-family="sans-serif" font-size="14" lengthAdjust="spacing" textLength="109" x="771.5" y="1159.166">leasesRepository</text><text fill="#000000" font-family="sans-serif" font-size="14" lengthAdjust="spacing" textLength="118" x="767" y="1177.7871">:LeasesRepository</text><rect fill="#E3E3E3" height="51.2422" rx="2.5" ry="2.5" style="stroke:#181818;stroke-width:0.5;" width="57" x="916" y="1137.0586"/><text fill="#000000" font-family="sans-serif" font-size="14" lengthAdjust="spacing" textLength="34" x="927.5" y="1159.166">lease</text><text fill="#000000" font-family="sans-serif" font-size="14" lengthAdjust="spacing" textLength="43" x="923" y="1177.7871">:Lease</text><rect fill="#E3E3E3" height="51.2422" rx="2.5" ry="2.5" style="stroke:#181818;stroke-width:0.5;" width="50" x="1027.5" y="1137.0586"/><text fill="#000000" font-family="sans-serif" font-size="14" lengthAdjust="spacing" textLength="27" x="1039" y="1159.166">land</text><text fill="#000000" font-family="sans-serif" font-size="14" lengthAdjust="spacing" textLength="36" x="1034.5" y="1177.7871">:Land</text><rect fill="#E3E3E3" height="51.2422" rx="2.5" ry="2.5" style="stroke:#181818;stroke-width:0.5;" width="83" x="1087.5" y="1137.0586"/><text fill="#000000" font-family="sans-serif" font-size="14" lengthAdjust="spacing" textLength="64" x="1097" y="1159.166">apartment</text><text fill="#000000" font-family="sans-serif" font-size="14" lengthAdjust="spacing" textLength="69" x="1094.5" y="1177.7871">:Apartment</text><rect fill="#E3E3E3" height="51.2422" rx="2.5" ry="2.5" style="stroke:#181818;stroke-width:0.5;" width="58" x="1180.5" y="1137.0586"/><text fill="#000000" font-family="sans-serif" font-size="14" lengthAdjust="spacing" textLength="39" x="1190" y="1159.166">house</text><text fill="#000000" font-family="sans-serif" font-size="14" lengthAdjust="spacing" textLength="44" x="1187.5" y="1177.7871">:House</text><rect fill="#E3E3E3" height="32.6211" rx="2.5" ry="2.5" style="stroke:#181818;stroke-width:0.5;" width="57" x="1299.5" y="1137.0586"/><text fill="#000000" font-family="sans-serif" font-size="14" lengthAdjust="spacing" textLength="43" x="1306.5" y="1159.166">adress</text><rect fill="#FFFFFF" height="1061.8164" style="stroke:#181818;stroke-width:1.0;" width="10" x="120" y="67.2422"/><rect fill="#FFFFFF" height="31.291" style="stroke:#181818;stroke-width:1.0;" width="10" x="326.5" y="90.5332"/><rect fill="#FFFFFF" height="261.9785" style="stroke:#181818;stroke-width:1.0;" width="10" x="821" y="196.6973"/><rect fill="#FFFFFF" height="261.9785" style="stroke:#181818;stroke-width:1.0;" width="10" x="821" y="523.8887"/><rect fill="#FFFFFF" height="261.9785" style="stroke:#181818;stroke-width:1.0;" width="10" x="821" y="851.0801"/><rect fill="#FFFFFF" height="189.3965" style="stroke:#181818;stroke-width:1.0;" width="10" x="939.5" y="237.9883"/><rect fill="#FFFFFF" height="189.3965" style="stroke:#181818;stroke-width:1.0;" width="10" x="939.5" y="565.1797"/><rect fill="#FFFFFF" height="189.3965" style="stroke:#181818;stroke-width:1.0;" width="10" x="939.5" y="892.3711"/><rect fill="#FFFFFF" height="95.8633" style="stroke:#181818;stroke-width:1.0;" width="10" x="1047.5" y="300.2305"/><rect fill="#FFFFFF" height="95.8633" style="stroke:#181818;stroke-width:1.0;" width="10" x="1124" y="627.4219"/><rect fill="#FFFFFF" height="95.8633" style="stroke:#181818;stroke-width:1.0;" width="10" x="1204.5" y="954.6133"/><polygon fill="#181818" points="314.5,86.5332,324.5,90.5332,314.5,94.5332,318.5,90.5332" style="stroke:#181818;stroke-width:1.0;"/><line style="stroke:#181818;stroke-width:1.0;" x1="130" x2="320.5" y1="90.5332" y2="90.5332"/><text fill="#000000" font-family="sans-serif" font-size="13" font-weight="bold" lengthAdjust="spacing" textLength="7" x="137" y="85.2705">1</text><text fill="#000000" font-family="sans-serif" font-size="13" lengthAdjust="spacing" textLength="130" x="148" y="85.2705">getLeasesRepository()</text><polygon fill="#181818" points="141,117.8242,131,121.8242,141,125.8242,137,121.8242" style="stroke:#181818;stroke-width:1.0;"/><line style="stroke:#181818;stroke-width:1.0;stroke-dasharray:2.0,2.0;" x1="135" x2="330.5" y1="121.8242" y2="121.8242"/><text fill="#000000" font-family="sans-serif" font-size="13" font-weight="bold" lengthAdjust="spacing" textLength="7" x="147" y="116.5615">2</text><text fill="#000000" font-family="sans-serif" font-size="13" lengthAdjust="spacing" textLength="100" x="158" y="116.5615">leasesRepository</text><path d="M10,136.8242 L71,136.8242 L71,146.1152 L61,156.1152 L10,156.1152 L10,136.8242 " fill="#EEEEEE" style="stroke:#000000;stroke-width:1.5;"/><rect fill="none" height="984.2344" style="stroke:#000000;stroke-width:1.5;" width="1356.5" x="10" y="136.8242"/><text fill="#000000" font-family="sans-serif" font-size="13" font-weight="bold" lengthAdjust="spacing" textLength="16" x="25" y="151.8525">alt</text><text fill="#000000" font-family="sans-serif" font-size="11" font-weight="bold" lengthAdjust="spacing" textLength="112" x="86" y="150.6943">[propertyType=land]</text><polygon fill="#181818" points="809,192.6973,819,196.6973,809,200.6973,813,196.6973" style="stroke:#181818;stroke-width:1.0;"/><line style="stroke:#181818;stroke-width:1.0;" x1="130" x2="815" y1="196.6973" y2="196.6973"/><text fill="#000000" font-family="sans-serif" font-size="13" font-weight="bold" lengthAdjust="spacing" textLength="7" x="137" y="182.7891">3</text><text fill="#000000" font-family="sans-serif" font-size="13" lengthAdjust="spacing" textLength="372" x="148" y="174.1436">createLeases(responsibleAgent,price,comissionType,comission,</text><text fill="#000000" font-family="sans-serif" font-size="13" lengthAdjust="spacing" textLength="337" x="148" y="191.4346">state,district,city,zipcode,street,area,distanceFromCenter)</text><polygon fill="#181818" points="904,223.9883,914,227.9883,904,231.9883,908,227.9883" style="stroke:#181818;stroke-width:1.0;"/><line style="stroke:#181818;stroke-width:1.0;" x1="831" x2="910" y1="227.9883" y2="227.9883"/><text fill="#000000" font-family="sans-serif" font-size="13" font-weight="bold" lengthAdjust="spacing" textLength="7" x="838" y="222.7256">4</text><text fill="#000000" font-family="sans-serif" font-size="13" lengthAdjust="spacing" textLength="4" x="849" y="222.7256">&#160;</text><rect fill="#E3E3E3" height="51.2422" rx="2.5" ry="2.5" style="stroke:#181818;stroke-width:0.5;" width="57" x="916" y="204.6973"/><text fill="#000000" font-family="sans-serif" font-size="14" lengthAdjust="spacing" textLength="34" x="927.5" y="226.8047">lease</text><text fill="#000000" font-family="sans-serif" font-size="14" lengthAdjust="spacing" textLength="43" x="923" y="245.4258">:Lease</text><polygon fill="#181818" points="1015.5,286.2305,1025.5,290.2305,1015.5,294.2305,1019.5,290.2305" style="stroke:#181818;stroke-width:1.0;"/><line style="stroke:#181818;stroke-width:1.0;" x1="949.5" x2="1021.5" y1="290.2305" y2="290.2305"/><text fill="#000000" font-family="sans-serif" font-size="13" font-weight="bold" lengthAdjust="spacing" textLength="7" x="956.5" y="284.9678">5</text><text fill="#000000" font-family="sans-serif" font-size="13" lengthAdjust="spacing" textLength="43" x="967.5" y="284.9678">creates</text><rect fill="#E3E3E3" height="51.2422" rx="2.5" ry="2.5" style="stroke:#181818;stroke-width:0.5;" width="50" x="1027.5" y="266.9395"/><text fill="#000000" font-family="sans-serif" font-size="14" lengthAdjust="spacing" textLength="27" x="1039" y="289.0469">land</text><text fill="#000000" font-family="sans-serif" font-size="14" lengthAdjust="spacing" textLength="36" x="1034.5" y="307.668">:Land</text><polygon fill="#181818" points="1287.5,348.4727,1297.5,352.4727,1287.5,356.4727,1291.5,352.4727" style="stroke:#181818;stroke-width:1.0;"/><line style="stroke:#181818;stroke-width:1.0;" x1="1057.5" x2="1293.5" y1="352.4727" y2="352.4727"/><text fill="#000000" font-family="sans-serif" font-size="13" font-weight="bold" lengthAdjust="spacing" textLength="7" x="1064.5" y="347.21">6</text><text fill="#000000" font-family="sans-serif" font-size="13" lengthAdjust="spacing" textLength="43" x="1075.5" y="347.21">creates</text><rect fill="#E3E3E3" height="32.6211" rx="2.5" ry="2.5" style="stroke:#181818;stroke-width:0.5;" width="57" x="1299.5" y="329.1816"/><text fill="#000000" font-family="sans-serif" font-size="14" lengthAdjust="spacing" textLength="43" x="1306.5" y="351.2891">adress</text><polygon fill="#181818" points="960.5,392.0938,950.5,396.0938,960.5,400.0938,956.5,396.0938" style="stroke:#181818;stroke-width:1.0;"/><line style="stroke:#181818;stroke-width:1.0;stroke-dasharray:2.0,2.0;" x1="954.5" x2="1051.5" y1="396.0938" y2="396.0938"/><text fill="#000000" font-family="sans-serif" font-size="13" font-weight="bold" lengthAdjust="spacing" textLength="7" x="966.5" y="390.8311">7</text><text fill="#000000" font-family="sans-serif" font-size="13" lengthAdjust="spacing" textLength="4" x="977.5" y="390.8311">&#160;</text><polygon fill="#181818" points="842,423.3848,832,427.3848,842,431.3848,838,427.3848" style="stroke:#181818;stroke-width:1.0;"/><line style="stroke:#181818;stroke-width:1.0;stroke-dasharray:2.0,2.0;" x1="836" x2="943.5" y1="427.3848" y2="427.3848"/><text fill="#000000" font-family="sans-serif" font-size="13" font-weight="bold" lengthAdjust="spacing" textLength="7" x="848" y="422.1221">8</text><text fill="#000000" font-family="sans-serif" font-size="13" lengthAdjust="spacing" textLength="4" x="859" y="422.1221">&#160;</text><polygon fill="#181818" points="141,454.6758,131,458.6758,141,462.6758,137,458.6758" style="stroke:#181818;stroke-width:1.0;"/><line style="stroke:#181818;stroke-width:1.0;stroke-dasharray:2.0,2.0;" x1="135" x2="825" y1="458.6758" y2="458.6758"/><text fill="#000000" font-family="sans-serif" font-size="13" font-weight="bold" lengthAdjust="spacing" textLength="7" x="147" y="453.4131">9</text><text fill="#000000" font-family="sans-serif" font-size="13" lengthAdjust="spacing" textLength="31" x="158" y="453.4131">lease</text><line style="stroke:#000000;stroke-width:1.0;stroke-dasharray:2.0,2.0;" x1="10" x2="1366.5" y1="467.6758" y2="467.6758"/><text fill="#000000" font-family="sans-serif" font-size="11" font-weight="bold" lengthAdjust="spacing" textLength="146" x="15" y="479.5459">[propertyType=apartment]</text><polygon fill="#181818" points="809,519.8887,819,523.8887,809,527.8887,813,523.8887" style="stroke:#181818;stroke-width:1.0;"/><line style="stroke:#181818;stroke-width:1.0;" x1="130" x2="815" y1="523.8887" y2="523.8887"/><text fill="#000000" font-family="sans-serif" font-size="13" font-weight="bold" lengthAdjust="spacing" textLength="14" x="137" y="509.9805">10</text><text fill="#000000" font-family="sans-serif" font-size="13" lengthAdjust="spacing" textLength="559" x="155" y="501.335">createLeases(responsibleAgent,price,comissionType,comission,state,district,city,zipcode,street,</text><text fill="#000000" font-family="sans-serif" font-size="13" lengthAdjust="spacing" textLength="528" x="155" y="518.626">area,distanceFromCenter,nBedrooms,nBathrooms,nParkingSpaces,heating,airConditianing)</text><polygon fill="#181818" points="904,551.1797,914,555.1797,904,559.1797,908,555.1797" style="stroke:#181818;stroke-width:1.0;"/><line style="stroke:#181818;stroke-width:1.0;" x1="831" x2="910" y1="555.1797" y2="555.1797"/><text fill="#000000" font-family="sans-serif" font-size="13" font-weight="bold" lengthAdjust="spacing" textLength="14" x="838" y="549.917">11</text><text fill="#000000" font-family="sans-serif" font-size="13" lengthAdjust="spacing" textLength="4" x="856" y="549.917">&#160;</text><rect fill="#E3E3E3" height="51.2422" rx="2.5" ry="2.5" style="stroke:#181818;stroke-width:0.5;" width="57" x="916" y="531.8887"/><text fill="#000000" font-family="sans-serif" font-size="14" lengthAdjust="spacing" textLength="34" x="927.5" y="553.9961">lease</text><text fill="#000000" font-family="sans-serif" font-size="14" lengthAdjust="spacing" textLength="43" x="923" y="572.6172">:Lease</text><polygon fill="#181818" points="1075.5,613.4219,1085.5,617.4219,1075.5,621.4219,1079.5,617.4219" style="stroke:#181818;stroke-width:1.0;"/><line style="stroke:#181818;stroke-width:1.0;" x1="949.5" x2="1081.5" y1="617.4219" y2="617.4219"/><text fill="#000000" font-family="sans-serif" font-size="13" font-weight="bold" lengthAdjust="spacing" textLength="14" x="956.5" y="612.1592">12</text><text fill="#000000" font-family="sans-serif" font-size="13" lengthAdjust="spacing" textLength="43" x="974.5" y="612.1592">creates</text><rect fill="#E3E3E3" height="51.2422" rx="2.5" ry="2.5" style="stroke:#181818;stroke-width:0.5;" width="83" x="1087.5" y="594.1309"/><text fill="#000000" font-family="sans-serif" font-size="14" lengthAdjust="spacing" textLength="64" x="1097" y="616.2383">apartment</text><text fill="#000000" font-family="sans-serif" font-size="14" lengthAdjust="spacing" textLength="69" x="1094.5" y="634.8594">:Apartment</text><polygon fill="#181818" points="1287.5,675.6641,1297.5,679.6641,1287.5,683.6641,1291.5,679.6641" style="stroke:#181818;stroke-width:1.0;"/><line style="stroke:#181818;stroke-width:1.0;" x1="1134" x2="1293.5" y1="679.6641" y2="679.6641"/><text fill="#000000" font-family="sans-serif" font-size="13" font-weight="bold" lengthAdjust="spacing" textLength="14" x="1141" y="674.4014">13</text><text fill="#000000" font-family="sans-serif" font-size="13" lengthAdjust="spacing" textLength="4" x="1159" y="674.4014">&#160;</text><rect fill="#E3E3E3" height="32.6211" rx="2.5" ry="2.5" style="stroke:#181818;stroke-width:0.5;" width="57" x="1299.5" y="656.373"/><text fill="#000000" font-family="sans-serif" font-size="14" lengthAdjust="spacing" textLength="43" x="1306.5" y="678.4805">adress</text><polygon fill="#181818" points="960.5,719.2852,950.5,723.2852,960.5,727.2852,956.5,723.2852" style="stroke:#181818;stroke-width:1.0;"/><line style="stroke:#181818;stroke-width:1.0;stroke-dasharray:2.0,2.0;" x1="954.5" x2="1128" y1="723.2852" y2="723.2852"/><text fill="#000000" font-family="sans-serif" font-size="13" font-weight="bold" lengthAdjust="spacing" textLength="14" x="966.5" y="718.0225">14</text><text fill="#000000" font-family="sans-serif" font-size="13" lengthAdjust="spacing" textLength="4" x="984.5" y="718.0225">&#160;</text><polygon fill="#181818" points="842,750.5762,832,754.5762,842,758.5762,838,754.5762" style="stroke:#181818;stroke-width:1.0;"/><line style="stroke:#181818;stroke-width:1.0;stroke-dasharray:2.0,2.0;" x1="836" x2="943.5" y1="754.5762" y2="754.5762"/><text fill="#000000" font-family="sans-serif" font-size="13" font-weight="bold" lengthAdjust="spacing" textLength="14" x="848" y="749.3135">15</text><text fill="#000000" font-family="sans-serif" font-size="13" lengthAdjust="spacing" textLength="4" x="866" y="749.3135">&#160;</text><polygon fill="#181818" points="141,781.8672,131,785.8672,141,789.8672,137,785.8672" style="stroke:#181818;stroke-width:1.0;"/><line style="stroke:#181818;stroke-width:1.0;stroke-dasharray:2.0,2.0;" x1="135" x2="825" y1="785.8672" y2="785.8672"/><text fill="#000000" font-family="sans-serif" font-size="13" font-weight="bold" lengthAdjust="spacing" textLength="14" x="147" y="780.6045">16</text><text fill="#000000" font-family="sans-serif" font-size="13" lengthAdjust="spacing" textLength="31" x="165" y="780.6045">lease</text><line style="stroke:#000000;stroke-width:1.0;stroke-dasharray:2.0,2.0;" x1="10" x2="1366.5" y1="794.8672" y2="794.8672"/><text fill="#000000" font-family="sans-serif" font-size="11" font-weight="bold" lengthAdjust="spacing" textLength="124" x="15" y="806.7373">[propertyType=house]</text><polygon fill="#181818" points="809,847.0801,819,851.0801,809,855.0801,813,851.0801" style="stroke:#181818;stroke-width:1.0;"/><line style="stroke:#181818;stroke-width:1.0;" x1="130" x2="815" y1="851.0801" y2="851.0801"/><text fill="#000000" font-family="sans-serif" font-size="13" font-weight="bold" lengthAdjust="spacing" textLength="14" x="137" y="837.1719">17</text><text fill="#000000" font-family="sans-serif" font-size="13" lengthAdjust="spacing" textLength="654" x="155" y="828.5264">createLeases(createSale(responsibleAgent,price,comissionType,comission,state,district,city,zipcode,street,area,</text><text fill="#000000" font-family="sans-serif" font-size="13" lengthAdjust="spacing" textLength="606" x="155" y="845.8174">distanceFromCenter,nBedrooms,nBathrooms,nParkingSpaces,heating,airConditianing,basement,loft,sun)</text><polygon fill="#181818" points="904,878.3711,914,882.3711,904,886.3711,908,882.3711" style="stroke:#181818;stroke-width:1.0;"/><line style="stroke:#181818;stroke-width:1.0;" x1="831" x2="910" y1="882.3711" y2="882.3711"/><text fill="#000000" font-family="sans-serif" font-size="13" font-weight="bold" lengthAdjust="spacing" textLength="14" x="838" y="877.1084">18</text><text fill="#000000" font-family="sans-serif" font-size="13" lengthAdjust="spacing" textLength="43" x="856" y="877.1084">creates</text><rect fill="#E3E3E3" height="51.2422" rx="2.5" ry="2.5" style="stroke:#181818;stroke-width:0.5;" width="57" x="916" y="859.0801"/><text fill="#000000" font-family="sans-serif" font-size="14" lengthAdjust="spacing" textLength="34" x="927.5" y="881.1875">lease</text><text fill="#000000" font-family="sans-serif" font-size="14" lengthAdjust="spacing" textLength="43" x="923" y="899.8086">:Lease</text><polygon fill="#181818" points="1168.5,940.6133,1178.5,944.6133,1168.5,948.6133,1172.5,944.6133" style="stroke:#181818;stroke-width:1.0;"/><line style="stroke:#181818;stroke-width:1.0;" x1="949.5" x2="1174.5" y1="944.6133" y2="944.6133"/><text fill="#000000" font-family="sans-serif" font-size="13" font-weight="bold" lengthAdjust="spacing" textLength="14" x="956.5" y="939.3506">19</text><text fill="#000000" font-family="sans-serif" font-size="13" lengthAdjust="spacing" textLength="43" x="974.5" y="939.3506">creates</text><rect fill="#E3E3E3" height="51.2422" rx="2.5" ry="2.5" style="stroke:#181818;stroke-width:0.5;" width="58" x="1180.5" y="921.3223"/><text fill="#000000" font-family="sans-serif" font-size="14" lengthAdjust="spacing" textLength="39" x="1190" y="943.4297">house</text><text fill="#000000" font-family="sans-serif" font-size="14" lengthAdjust="spacing" textLength="44" x="1187.5" y="962.0508">:House</text><polygon fill="#181818" points="1287.5,1002.8555,1297.5,1006.8555,1287.5,1010.8555,1291.5,1006.8555" style="stroke:#181818;stroke-width:1.0;"/><line style="stroke:#181818;stroke-width:1.0;" x1="1214.5" x2="1293.5" y1="1006.8555" y2="1006.8555"/><text fill="#000000" font-family="sans-serif" font-size="13" font-weight="bold" lengthAdjust="spacing" textLength="14" x="1221.5" y="1001.5928">20</text><text fill="#000000" font-family="sans-serif" font-size="13" lengthAdjust="spacing" textLength="43" x="1239.5" y="1001.5928">creates</text><rect fill="#E3E3E3" height="32.6211" rx="2.5" ry="2.5" style="stroke:#181818;stroke-width:0.5;" width="57" x="1299.5" y="983.5645"/><text fill="#000000" font-family="sans-serif" font-size="14" lengthAdjust="spacing" textLength="43" x="1306.5" y="1005.6719">adress</text><polygon fill="#181818" points="960.5,1046.4766,950.5,1050.4766,960.5,1054.4766,956.5,1050.4766" style="stroke:#181818;stroke-width:1.0;"/><line style="stroke:#181818;stroke-width:1.0;stroke-dasharray:2.0,2.0;" x1="954.5" x2="1208.5" y1="1050.4766" y2="1050.4766"/><text fill="#000000" font-family="sans-serif" font-size="13" font-weight="bold" lengthAdjust="spacing" textLength="14" x="966.5" y="1045.2139">21</text><text fill="#000000" font-family="sans-serif" font-size="13" lengthAdjust="spacing" textLength="4" x="984.5" y="1045.2139">&#160;</text><polygon fill="#181818" points="842,1077.7676,832,1081.7676,842,1085.7676,838,1081.7676" style="stroke:#181818;stroke-width:1.0;"/><line style="stroke:#181818;stroke-width:1.0;stroke-dasharray:2.0,2.0;" x1="836" x2="943.5" y1="1081.7676" y2="1081.7676"/><text fill="#000000" font-family="sans-serif" font-size="13" font-weight="bold" lengthAdjust="spacing" textLength="14" x="848" y="1076.5049">22</text><text fill="#000000" font-family="sans-serif" font-size="13" lengthAdjust="spacing" textLength="4" x="866" y="1076.5049">&#160;</text><polygon fill="#181818" points="141,1109.0586,131,1113.0586,141,1117.0586,137,1113.0586" style="stroke:#181818;stroke-width:1.0;"/><line style="stroke:#181818;stroke-width:1.0;stroke-dasharray:2.0,2.0;" x1="135" x2="825" y1="1113.0586" y2="1113.0586"/><text fill="#000000" font-family="sans-serif" font-size="13" font-weight="bold" lengthAdjust="spacing" textLength="14" x="147" y="1107.7959">23</text><text fill="#000000" font-family="sans-serif" font-size="13" lengthAdjust="spacing" textLength="31" x="165" y="1107.7959">lease</text><!--SRC=[jLHDZziW4BtxLw0zRIBo1o9rfJHIrKCFrQR7N2Pura5hWmLuL-clxm3-22HEewhnnSpmPfXvyy2-IzM2WOOrMcbnDBf1vao7XHrtMX3lKE7EdMfa1eK3LTNd07k4KdzALR4tg2qM1RcT5B85vTZJUciG76wKqft01fNRQkMChciqJmmicymq4CeF9DE66FkAhRRIQNFQg_LcPYlacujBizS85jEiFp9No1PnLsA7W0cLWK2L7aE_2A55rg2tV96-es4TMnYiDE2ekt3kT_yFmE0fw8FEQTKr1oAH3E7a1t5-Jct1w9lirSiSJUiANSx4yoB6ZubdEGwecStLwcKgO9qF88IM-FSZF11gnrgZMqASVfrQ_1BO3IcoDkCnQn546FjwDcXRhQmyrBYfA3jlZHJ8XMwajL8hdt6o-5vPHy6ybDOHq74XtOd_bgtG9NBo8JeET410W1BuZUxHbXAZMOn5ZOtrYkhTqUhhN2vZTmcq6504eYwNoxuPcs4z0nvAVpzTQjAUOOUT_gGY9NkaBnuqq9QZGcHM-ULG1q0U6Gj6UYBIsKrgVz00xnZVNiqCaAklM1gj6qihSCT- -HCClN_LZXv7jFn8jP75GHeglPHEWYBxduRFRWbWf6fE1HENtZiOanvIztKnfFEuKn4trN2l4lhdx4uLH6C7DJv0444EU_L_1S4F4DypNkitnssd5bSkl2qkfP5C-xf4s2IJmEEje4Xqxmt6zITZsZwJIdQtqw5ToeKzuX5HvHy0]--></g></svg>