<?xml version="1.0" encoding="us-ascii" standalone="no"?><svg xmlns="http://www.w3.org/2000/svg" xmlns:xlink="http://www.w3.org/1999/xlink" contentStyleType="text/css" height="539px" preserveAspectRatio="none" style="width:497px;height:539px;background:#FFFFFF;" version="1.1" viewBox="0 0 497 539" width="497px" zoomAndPan="magnify"><defs/><g><text fill="#000000" font-family="sans-serif" font-size="14" font-weight="bold" lengthAdjust="spacing" textLength="334" x="80.5" y="30.1074">User Story 02 - System Sequence Diagram (SSD)</text><rect fill="#FFFFFF" height="313.9102" style="stroke:#181818;stroke-width:1.0;" width="10" x="52" y="133.2422"/><rect fill="#FFFFFF" height="31.291" style="stroke:#181818;stroke-width:1.0;" width="10" x="454" y="156.5332"/><rect fill="#FFFFFF" height="31.291" style="stroke:#181818;stroke-width:1.0;" width="10" x="454" y="219.1152"/><rect fill="#FFFFFF" height="31.291" style="stroke:#181818;stroke-width:1.0;" width="10" x="454" y="281.6973"/><rect fill="#FFFFFF" height="31.291" style="stroke:#181818;stroke-width:1.0;" width="10" x="454" y="344.2793"/><rect fill="#FFFFFF" height="31.291" style="stroke:#181818;stroke-width:1.0;" width="10" x="454" y="406.8613"/><line style="stroke:#181818;stroke-width:0.5;stroke-dasharray:5.0,5.0;" x1="57" x2="57" y1="123.2422" y2="456.1523"/><line style="stroke:#181818;stroke-width:0.5;stroke-dasharray:5.0,5.0;" x1="459" x2="459" y1="123.2422" y2="456.1523"/><text fill="#000000" font-family="sans-serif" font-size="14" lengthAdjust="spacing" textLength="98" x="5" y="119.7285">Gestor Agr&#237;cola</text><ellipse cx="57" cy="53.1211" fill="#E3E3E3" rx="8" ry="8" style="stroke:#181818;stroke-width:0.5;"/><path d="M57,61.1211 L57,88.1211 M44,69.1211 L70,69.1211 M57,88.1211 L44,103.1211 M57,88.1211 L70,103.1211 " fill="none" style="stroke:#181818;stroke-width:0.5;"/><text fill="#000000" font-family="sans-serif" font-size="14" lengthAdjust="spacing" textLength="98" x="5" y="470.2598">Gestor Agr&#237;cola</text><ellipse cx="57" cy="482.2734" fill="#E3E3E3" rx="8" ry="8" style="stroke:#181818;stroke-width:0.5;"/><path d="M57,490.2734 L57,517.2734 M44,498.2734 L70,498.2734 M57,517.2734 L44,532.2734 M57,517.2734 L70,532.2734 " fill="none" style="stroke:#181818;stroke-width:0.5;"/><rect fill="#E3E3E3" height="32.6211" rx="2.5" ry="2.5" style="stroke:#181818;stroke-width:0.5;" width="64" x="427" y="89.6211"/><text fill="#000000" font-family="sans-serif" font-size="14" lengthAdjust="spacing" textLength="50" x="434" y="111.7285">:System</text><rect fill="#E3E3E3" height="32.6211" rx="2.5" ry="2.5" style="stroke:#181818;stroke-width:0.5;" width="64" x="427" y="455.1523"/><text fill="#000000" font-family="sans-serif" font-size="14" lengthAdjust="spacing" textLength="50" x="434" y="477.2598">:System</text><rect fill="#FFFFFF" height="313.9102" style="stroke:#181818;stroke-width:1.0;" width="10" x="52" y="133.2422"/><rect fill="#FFFFFF" height="31.291" style="stroke:#181818;stroke-width:1.0;" width="10" x="454" y="156.5332"/><rect fill="#FFFFFF" height="31.291" style="stroke:#181818;stroke-width:1.0;" width="10" x="454" y="219.1152"/><rect fill="#FFFFFF" height="31.291" style="stroke:#181818;stroke-width:1.0;" width="10" x="454" y="281.6973"/><rect fill="#FFFFFF" height="31.291" style="stroke:#181818;stroke-width:1.0;" width="10" x="454" y="344.2793"/><rect fill="#FFFFFF" height="31.291" style="stroke:#181818;stroke-width:1.0;" width="10" x="454" y="406.8613"/><polygon fill="#181818" points="442,152.5332,452,156.5332,442,160.5332,446,156.5332" style="stroke:#181818;stroke-width:1.0;"/><line style="stroke:#181818;stroke-width:1.0;" x1="62" x2="448" y1="156.5332" y2="156.5332"/><text fill="#000000" font-family="sans-serif" font-size="13" font-weight="bold" lengthAdjust="spacing" textLength="7" x="69" y="151.2705">1</text><text fill="#000000" font-family="sans-serif" font-size="13" lengthAdjust="spacing" textLength="140" x="80" y="151.2705">pede para registrar poda</text><polygon fill="#181818" points="73,183.8242,63,187.8242,73,191.8242,69,187.8242" style="stroke:#181818;stroke-width:1.0;"/><line style="stroke:#181818;stroke-width:1.0;stroke-dasharray:2.0,2.0;" x1="67" x2="458" y1="187.8242" y2="187.8242"/><text fill="#000000" font-family="sans-serif" font-size="13" font-weight="bold" lengthAdjust="spacing" textLength="7" x="79" y="182.5615">2</text><text fill="#000000" font-family="sans-serif" font-size="13" lengthAdjust="spacing" textLength="310" x="90" y="182.5615">pede para introduzir a data de realiza&#231;&#227;o da opera&#231;&#227;o</text><polygon fill="#181818" points="442,215.1152,452,219.1152,442,223.1152,446,219.1152" style="stroke:#181818;stroke-width:1.0;"/><line style="stroke:#181818;stroke-width:1.0;" x1="62" x2="448" y1="219.1152" y2="219.1152"/><text fill="#000000" font-family="sans-serif" font-size="13" font-weight="bold" lengthAdjust="spacing" textLength="7" x="69" y="213.8525">3</text><text fill="#000000" font-family="sans-serif" font-size="13" lengthAdjust="spacing" textLength="161" x="80" y="213.8525">introduz a data da opera&#231;&#227;o</text><polygon fill="#181818" points="73,246.4063,63,250.4063,73,254.4063,69,250.4063" style="stroke:#181818;stroke-width:1.0;"/><line style="stroke:#181818;stroke-width:1.0;stroke-dasharray:2.0,2.0;" x1="67" x2="458" y1="250.4063" y2="250.4063"/><text fill="#000000" font-family="sans-serif" font-size="13" font-weight="bold" lengthAdjust="spacing" textLength="7" x="79" y="245.1436">4</text><text fill="#000000" font-family="sans-serif" font-size="13" lengthAdjust="spacing" textLength="334" x="90" y="245.1436">lista parcelas registadas no sistema e pede para escolher</text><polygon fill="#181818" points="442,277.6973,452,281.6973,442,285.6973,446,281.6973" style="stroke:#181818;stroke-width:1.0;"/><line style="stroke:#181818;stroke-width:1.0;" x1="62" x2="448" y1="281.6973" y2="281.6973"/><text fill="#000000" font-family="sans-serif" font-size="13" font-weight="bold" lengthAdjust="spacing" textLength="7" x="69" y="276.4346">5</text><text fill="#000000" font-family="sans-serif" font-size="13" lengthAdjust="spacing" textLength="176" x="80" y="276.4346">seleciona a parcela pretendida</text><polygon fill="#181818" points="73,308.9883,63,312.9883,73,316.9883,69,312.9883" style="stroke:#181818;stroke-width:1.0;"/><line style="stroke:#181818;stroke-width:1.0;stroke-dasharray:2.0,2.0;" x1="67" x2="458" y1="312.9883" y2="312.9883"/><text fill="#000000" font-family="sans-serif" font-size="13" font-weight="bold" lengthAdjust="spacing" textLength="7" x="79" y="307.7256">6</text><text fill="#000000" font-family="sans-serif" font-size="13" lengthAdjust="spacing" textLength="357" x="90" y="307.7256">lista as variedades presentes na parcela e pede para escolher</text><polygon fill="#181818" points="442,340.2793,452,344.2793,442,348.2793,446,344.2793" style="stroke:#181818;stroke-width:1.0;"/><line style="stroke:#181818;stroke-width:1.0;" x1="62" x2="448" y1="344.2793" y2="344.2793"/><text fill="#000000" font-family="sans-serif" font-size="13" font-weight="bold" lengthAdjust="spacing" textLength="7" x="69" y="339.0166">7</text><text fill="#000000" font-family="sans-serif" font-size="13" lengthAdjust="spacing" textLength="188" x="80" y="339.0166">seleciona a variedade pretendida</text><polygon fill="#181818" points="73,371.5703,63,375.5703,73,379.5703,69,375.5703" style="stroke:#181818;stroke-width:1.0;"/><line style="stroke:#181818;stroke-width:1.0;stroke-dasharray:2.0,2.0;" x1="67" x2="458" y1="375.5703" y2="375.5703"/><text fill="#000000" font-family="sans-serif" font-size="13" font-weight="bold" lengthAdjust="spacing" textLength="7" x="79" y="370.3076">8</text><text fill="#000000" font-family="sans-serif" font-size="13" lengthAdjust="spacing" textLength="281" x="90" y="370.3076">lista m&#233;todos de execu&#231;&#227;o e pede para escolher</text><polygon fill="#181818" points="442,402.8613,452,406.8613,442,410.8613,446,406.8613" style="stroke:#181818;stroke-width:1.0;"/><line style="stroke:#181818;stroke-width:1.0;" x1="62" x2="448" y1="406.8613" y2="406.8613"/><text fill="#000000" font-family="sans-serif" font-size="13" font-weight="bold" lengthAdjust="spacing" textLength="7" x="69" y="401.5986">9</text><text fill="#000000" font-family="sans-serif" font-size="13" lengthAdjust="spacing" textLength="177" x="80" y="401.5986">seleciona o m&#233;todo pretendido</text><polygon fill="#181818" points="73,434.1523,63,438.1523,73,442.1523,69,438.1523" style="stroke:#181818;stroke-width:1.0;"/><line style="stroke:#181818;stroke-width:1.0;stroke-dasharray:2.0,2.0;" x1="67" x2="458" y1="438.1523" y2="438.1523"/><text fill="#000000" font-family="sans-serif" font-size="13" font-weight="bold" lengthAdjust="spacing" textLength="14" x="79" y="432.8896">10</text><text fill="#000000" font-family="sans-serif" font-size="13" lengthAdjust="spacing" textLength="254" x="97" y="432.8896">indica o sucesso ou insucesso da opera&#231;&#227;o</text><!--SRC=[fP91JiCm44NtESMeArX4GYnPL492uW0H1nZi8RL8FC4pBfJhi40iE4KlnZYXQM415MIHZEtvty_VaViG1qpOGy-HtIfnJw0fKoNpoe3k7bjgTDCH97AAiUqE6sI5dXz3RE4EEw6gqg3MUYEKe55E6pWxXngQZIZrqD13fkW8hWAsHNxID5UdLOLPEUR-bfBLpcImk2OftyisRTyTTxW05CXcMzd66bmOC2eiBYRdSLKsCih36fMcNh2d550lo_853EG92hgTfWsY2HCCxB4QMsTniIeJzgthPN4ub8QeYNr-3WaGFAgzIZhOXMVSlcvVs2Q11qhJQ7Joj3ElPgfwEJBjx6QpB-BVmJex1nOoHvt5C1qClPMHGKB91u4E-4aiqTLdF7kmAS1lS48TkS0HOTu2XaHAqOUZOfle36QDAP17Jr8CXA9Q5VUkHn3-I3Vx_uMltxufUvPoa_H4Ba_t-3yctjdkYOwvps2DhgWbEn9Xu6npky6FlrOPVW00]--></g></svg>