<?xml version="1.0" encoding="us-ascii" standalone="no"?><svg xmlns="http://www.w3.org/2000/svg" xmlns:xlink="http://www.w3.org/1999/xlink" contentStyleType="text/css" height="392px" preserveAspectRatio="none" style="width:382px;height:392px;background:#FFFFFF;" version="1.1" viewBox="0 0 382 392" width="382px" zoomAndPan="magnify"><defs/><g><text fill="#000000" font-family="sans-serif" font-size="14" font-weight="bold" lengthAdjust="spacing" textLength="146" x="111" y="25.1074">Diagrama de Classes</text><!--class Runnable--><g id="elem_Runnable"><rect codeLine="4" fill="#F1F1F1" height="66.6211" id="Runnable" rx="2.5" ry="2.5" style="stroke:#181818;stroke-width:0.5;" width="93" x="282" y="46.6211"/><ellipse cx="297" cy="62.6211" fill="#B4A7E5" rx="11" ry="11" style="stroke:#181818;stroke-width:1.0;"/><path d="M297.9531,59.2617 L297.9531,65.918 L299.6719,65.918 Q300.2813,65.918 300.5469,66.1523 Q300.8125,66.3867 300.8125,66.7773 Q300.8125,67.1523 300.5469,67.3867 Q300.2813,67.6211 299.6719,67.6211 L294.5313,67.6211 Q293.9219,67.6211 293.6563,67.3867 Q293.3906,67.1523 293.3906,66.7617 Q293.3906,66.3867 293.6563,66.1523 Q293.9219,65.918 294.5313,65.918 L296.25,65.918 L296.25,59.2617 L294.5313,59.2617 Q293.9219,59.2617 293.6563,59.0273 Q293.3906,58.793 293.3906,58.4023 Q293.3906,58.0273 293.6563,57.793 Q293.9219,57.5586 294.5313,57.5586 L299.6719,57.5586 Q300.2813,57.5586 300.5469,57.793 Q300.8125,58.0273 300.8125,58.4023 Q300.8125,58.793 300.5469,59.0273 Q300.2813,59.2617 299.6719,59.2617 L297.9531,59.2617 Z " fill="#000000"/><text fill="#000000" font-family="sans-serif" font-size="14" font-style="italic" lengthAdjust="spacing" textLength="61" x="311" y="68.418">Runnable</text><line style="stroke:#181818;stroke-width:0.5;" x1="283" x2="374" y1="78.6211" y2="78.6211"/><line style="stroke:#181818;stroke-width:0.5;" x1="283" x2="374" y1="86.6211" y2="86.6211"/><ellipse cx="293" cy="101.4316" fill="#84BE84" rx="3" ry="3" style="stroke:#038048;stroke-width:1.0;"/><text fill="#000000" font-family="sans-serif" font-size="14" lengthAdjust="spacing" textLength="31" x="302" y="105.7285">run()</text></g><!--class LoadDataFromFileUSAC09Controller--><g id="elem_LoadDataFromFileUSAC09Controller"><rect codeLine="8" fill="#F1F1F1" height="85.2422" id="LoadDataFromFileUSAC09Controller" rx="2.5" ry="2.5" style="stroke:#181818;stroke-width:0.5;" width="265" x="7" y="173.6211"/><ellipse cx="22" cy="189.6211" fill="#ADD1B2" rx="11" ry="11" style="stroke:#181818;stroke-width:1.0;"/><path d="M24.7656,185.4961 Q24.9219,185.2773 25.1094,185.168 Q25.2969,185.0586 25.5156,185.0586 Q25.8906,185.0586 26.125,185.3242 Q26.3594,185.5742 26.3594,186.1836 L26.3594,187.6367 Q26.3594,188.2461 26.125,188.5117 Q25.8906,188.7773 25.5156,188.7773 Q25.1719,188.7773 24.9688,188.5742 Q24.7656,188.3867 24.6563,187.8711 Q24.6094,187.5117 24.4219,187.3242 Q24.0938,186.9492 23.4844,186.7305 Q22.875,186.5117 22.25,186.5117 Q21.4844,186.5117 20.8438,186.8398 Q20.2188,187.168 19.7188,187.918 Q19.2344,188.668 19.2344,189.6992 L19.2344,190.793 Q19.2344,192.0273 20.125,192.8555 Q21.0156,193.668 22.6094,193.668 Q23.5469,193.668 24.2031,193.418 Q24.5938,193.2617 25.0156,192.8242 Q25.2813,192.5586 25.4219,192.4805 Q25.5781,192.4023 25.7813,192.4023 Q26.1094,192.4023 26.3594,192.668 Q26.625,192.918 26.625,193.2617 Q26.625,193.6055 26.2813,194.0117 Q25.7813,194.5898 24.9844,194.918 Q23.9063,195.3711 22.6094,195.3711 Q21.0938,195.3711 19.8906,194.7461 Q18.9063,194.2461 18.2188,193.1836 Q17.5313,192.1055 17.5313,190.8242 L17.5313,189.668 Q17.5313,188.3398 18.1406,187.1992 Q18.7656,186.043 19.8594,185.4336 Q20.9531,184.8086 22.1875,184.8086 Q22.9219,184.8086 23.5625,184.9805 Q24.2188,185.1367 24.7656,185.4961 Z " fill="#000000"/><text fill="#000000" font-family="sans-serif" font-size="14" lengthAdjust="spacing" textLength="233" x="36" y="195.418">LoadDataFromFileUSAC09Controller</text><line style="stroke:#181818;stroke-width:0.5;" x1="8" x2="271" y1="205.6211" y2="205.6211"/><rect fill="none" height="6" style="stroke:#C82930;stroke-width:1.0;" width="6" x="15" y="217.4316"/><text fill="#000000" font-family="sans-serif" font-size="14" lengthAdjust="spacing" textLength="59" x="27" y="224.7285">controller</text><line style="stroke:#181818;stroke-width:0.5;" x1="8" x2="271" y1="232.2422" y2="232.2422"/><ellipse cx="18" cy="247.0527" fill="#84BE84" rx="3" ry="3" style="stroke:#038048;stroke-width:1.0;"/><text fill="#000000" font-family="sans-serif" font-size="14" lengthAdjust="spacing" textLength="67" x="27" y="251.3496">loadData()</text></g><!--class LoadDataFromFileUSAC09UI--><g id="elem_LoadDataFromFileUSAC09UI"><rect codeLine="13" fill="#F1F1F1" height="66.6211" id="LoadDataFromFileUSAC09UI" rx="2.5" ry="2.5" style="stroke:#181818;stroke-width:0.5;" width="215" x="32" y="46.6211"/><ellipse cx="47" cy="62.6211" fill="#ADD1B2" rx="11" ry="11" style="stroke:#181818;stroke-width:1.0;"/><path d="M49.7656,58.4961 Q49.9219,58.2773 50.1094,58.168 Q50.2969,58.0586 50.5156,58.0586 Q50.8906,58.0586 51.125,58.3242 Q51.3594,58.5742 51.3594,59.1836 L51.3594,60.6367 Q51.3594,61.2461 51.125,61.5117 Q50.8906,61.7773 50.5156,61.7773 Q50.1719,61.7773 49.9688,61.5742 Q49.7656,61.3867 49.6563,60.8711 Q49.6094,60.5117 49.4219,60.3242 Q49.0938,59.9492 48.4844,59.7305 Q47.875,59.5117 47.25,59.5117 Q46.4844,59.5117 45.8438,59.8398 Q45.2188,60.168 44.7188,60.918 Q44.2344,61.668 44.2344,62.6992 L44.2344,63.793 Q44.2344,65.0273 45.125,65.8555 Q46.0156,66.668 47.6094,66.668 Q48.5469,66.668 49.2031,66.418 Q49.5938,66.2617 50.0156,65.8242 Q50.2813,65.5586 50.4219,65.4805 Q50.5781,65.4023 50.7813,65.4023 Q51.1094,65.4023 51.3594,65.668 Q51.625,65.918 51.625,66.2617 Q51.625,66.6055 51.2813,67.0117 Q50.7813,67.5898 49.9844,67.918 Q48.9063,68.3711 47.6094,68.3711 Q46.0938,68.3711 44.8906,67.7461 Q43.9063,67.2461 43.2188,66.1836 Q42.5313,65.1055 42.5313,63.8242 L42.5313,62.668 Q42.5313,61.3398 43.1406,60.1992 Q43.7656,59.043 44.8594,58.4336 Q45.9531,57.8086 47.1875,57.8086 Q47.9219,57.8086 48.5625,57.9805 Q49.2188,58.1367 49.7656,58.4961 Z " fill="#000000"/><text fill="#000000" font-family="sans-serif" font-size="14" lengthAdjust="spacing" textLength="183" x="61" y="68.418">LoadDataFromFileUSAC09UI</text><line style="stroke:#181818;stroke-width:0.5;" x1="33" x2="246" y1="78.6211" y2="78.6211"/><line style="stroke:#181818;stroke-width:0.5;" x1="33" x2="246" y1="86.6211" y2="86.6211"/><ellipse cx="43" cy="101.4316" fill="#84BE84" rx="3" ry="3" style="stroke:#038048;stroke-width:1.0;"/><text fill="#000000" font-family="sans-serif" font-size="14" lengthAdjust="spacing" textLength="31" x="52" y="105.7285">run()</text></g><!--class read_file_to_strucuture--><g id="elem_read_file_to_strucuture"><rect codeLine="17" fill="#F1F1F1" height="66.6211" id="read_file_to_strucuture" rx="2.5" ry="2.5" style="stroke:#181818;stroke-width:0.5;" width="179" x="50" y="318.6211"/><ellipse cx="65" cy="334.6211" fill="#ADD1B2" rx="11" ry="11" style="stroke:#181818;stroke-width:1.0;"/><path d="M67.7656,330.4961 Q67.9219,330.2773 68.1094,330.168 Q68.2969,330.0586 68.5156,330.0586 Q68.8906,330.0586 69.125,330.3242 Q69.3594,330.5742 69.3594,331.1836 L69.3594,332.6367 Q69.3594,333.2461 69.125,333.5117 Q68.8906,333.7773 68.5156,333.7773 Q68.1719,333.7773 67.9688,333.5742 Q67.7656,333.3867 67.6563,332.8711 Q67.6094,332.5117 67.4219,332.3242 Q67.0938,331.9492 66.4844,331.7305 Q65.875,331.5117 65.25,331.5117 Q64.4844,331.5117 63.8438,331.8398 Q63.2188,332.168 62.7188,332.918 Q62.2344,333.668 62.2344,334.6992 L62.2344,335.793 Q62.2344,337.0273 63.125,337.8555 Q64.0156,338.668 65.6094,338.668 Q66.5469,338.668 67.2031,338.418 Q67.5938,338.2617 68.0156,337.8242 Q68.2813,337.5586 68.4219,337.4805 Q68.5781,337.4023 68.7813,337.4023 Q69.1094,337.4023 69.3594,337.668 Q69.625,337.918 69.625,338.2617 Q69.625,338.6055 69.2813,339.0117 Q68.7813,339.5898 67.9844,339.918 Q66.9063,340.3711 65.6094,340.3711 Q64.0938,340.3711 62.8906,339.7461 Q61.9063,339.2461 61.2188,338.1836 Q60.5313,337.1055 60.5313,335.8242 L60.5313,334.668 Q60.5313,333.3398 61.1406,332.1992 Q61.7656,331.043 62.8594,330.4336 Q63.9531,329.8086 65.1875,329.8086 Q65.9219,329.8086 66.5625,329.9805 Q67.2188,330.1367 67.7656,330.4961 Z " fill="#000000"/><text fill="#000000" font-family="sans-serif" font-size="14" lengthAdjust="spacing" textLength="147" x="79" y="340.418">read_file_to_strucuture</text><line style="stroke:#181818;stroke-width:0.5;" x1="51" x2="228" y1="350.6211" y2="350.6211"/><line style="stroke:#181818;stroke-width:0.5;" x1="51" x2="228" y1="358.6211" y2="358.6211"/><ellipse cx="61" cy="373.4316" fill="#84BE84" rx="3" ry="3" style="stroke:#038048;stroke-width:1.0;"/><text fill="#000000" font-family="sans-serif" font-size="14" lengthAdjust="spacing" textLength="67" x="70" y="377.7285">loadData()</text></g><!--reverse link LoadDataFromFileUSAC09UI to Runnable--><g id="link_LoadDataFromFileUSAC09UI_Runnable"><path codeLine="21" d="M265.29,80.1211 C276.82,80.1211 270.34,80.1211 281.87,80.1211 " fill="none" id="LoadDataFromFileUSAC09UI-backto-Runnable" style="stroke:#181818;stroke-width:1.0;"/><polygon fill="none" points="247.29,80.1211,265.29,86.1211,265.29,74.1211,247.29,80.1211" style="stroke:#181818;stroke-width:1.0;"/></g><!--link LoadDataFromFileUSAC09UI to LoadDataFromFileUSAC09Controller--><g id="link_LoadDataFromFileUSAC09UI_LoadDataFromFileUSAC09Controller"><path codeLine="22" d="M139.5,113.9011 C139.5,131.8811 139.5,148.3411 139.5,167.5411 " fill="none" id="LoadDataFromFileUSAC09UI-to-LoadDataFromFileUSAC09Controller" style="stroke:#181818;stroke-width:1.0;stroke-dasharray:7.0,7.0;"/><polygon fill="#181818" points="139.5,173.5411,143.5,164.5411,139.5,168.5411,135.5,164.5411,139.5,173.5411" style="stroke:#181818;stroke-width:1.0;"/></g><!--link LoadDataFromFileUSAC09Controller to read_file_to_strucuture--><g id="link_LoadDataFromFileUSAC09Controller_read_file_to_strucuture"><path codeLine="23" d="M139.5,258.7811 C139.5,277.9911 139.5,294.4611 139.5,312.4211 " fill="none" id="LoadDataFromFileUSAC09Controller-to-read_file_to_strucuture" style="stroke:#181818;stroke-width:1.0;stroke-dasharray:7.0,7.0;"/><polygon fill="#181818" points="139.5,318.4211,143.5,309.4211,139.5,313.4211,135.5,309.4211,139.5,318.4211" style="stroke:#181818;stroke-width:1.0;"/></g><!--SRC=[XL2z2i903Dxp51aLQN5rAKXBGN1IEfTuJQLmlODSRbBVtHPAnU5enl3zww2MiHheAJGITeobfH0u00nEMNeoZBVe73qct0jmkWDATBizV03C3CQhfwuYfLhyM0-Mc_kvF9vAxrIyjImBBqEplXOXkp2trPfBobsOkhQVWAtwDgX44pNAB-o_nzebiznhzYwIVf0CakV5PcVO76LMIMI7Bm00]--></g></svg>